<?xml version="1.0" encoding="UTF-8" standalone="no"?>
<!-- Created with Inkscape (http://www.inkscape.org/) -->

<svg
   version="1.1"
   id="svg1"
   width="1280"
   height="1309.52"
   viewBox="0 0 1280 1309.52"
   sodipodi:docname="bw_vector_sova.svg"
   inkscape:version="1.4.3 (0d15f75042, 2025-12-25)"
   xmlns:inkscape="http://www.inkscape.org/namespaces/inkscape"
   xmlns:sodipodi="http://sodipodi.sourceforge.net/DTD/sodipodi-0.dtd"
   xmlns="http://www.w3.org/2000/svg"
   xmlns:svg="http://www.w3.org/2000/svg">
  <defs
     id="defs1">
    <clipPath
       clipPathUnits="userSpaceOnUse"
       id="clipPath1">
      <path
         d="M -98.67,425.72101 H 532.03602 V -197.92001 H -98.67 Z"
         id="path1" />
    </clipPath>
    <clipPath
       clipPathUnits="userSpaceOnUse"
       id="clipPath2">
      <path
         d="M -307.31001,623.63101 H 323.39601 V -0.0100025 h -630.70602 z"
         id="path2" />
    </clipPath>
    <clipPath
       clipPathUnits="userSpaceOnUse"
       id="clipPath41">
      <path
         d="M 0,0 H 1280 V 1309.52 H 0 Z"
         id="path41" />
    </clipPath>
    <linearGradient
       x1="0"
       y1="0"
       x2="1"
       y2="0"
       gradientUnits="userSpaceOnUse"
       gradientTransform="matrix(268.12561,0,0,-268.12561,480,577.42255)"
       spreadMethod="pad"
       id="linearGradient48">
      <stop
         style="stop-opacity:1;stop-color:#3ea8a9"
         offset="0"
         id="stop45" />
      <stop
         style="stop-opacity:1;stop-color:#3ea8a9"
         offset="0.37996"
         id="stop46" />
      <stop
         style="stop-opacity:1;stop-color:#84cfcb"
         offset="0.988072"
         id="stop47" />
      <stop
         style="stop-opacity:1;stop-color:#84cfcb"
         offset="1"
         id="stop48" />
    </linearGradient>
    <linearGradient
       x1="0"
       y1="0"
       x2="1"
       y2="0"
       gradientUnits="userSpaceOnUse"
       gradientTransform="matrix(-268.00568,0,0,-268.00568,480,577.42255)"
       spreadMethod="pad"
       id="linearGradient52">
      <stop
         style="stop-opacity:1;stop-color:#e08125"
         offset="0"
         id="stop49" />
      <stop
         style="stop-opacity:1;stop-color:#e08125"
         offset="0.37996"
         id="stop50" />
      <stop
         style="stop-opacity:1;stop-color:#f8c539"
         offset="0.988072"
         id="stop51" />
      <stop
         style="stop-opacity:1;stop-color:#f8c539"
         offset="1"
         id="stop52" />
    </linearGradient>
  </defs>
  <sodipodi:namedview
     id="namedview1"
     pagecolor="#ffffff"
     bordercolor="#000000"
     borderopacity="0.25"
     inkscape:showpageshadow="2"
     inkscape:pageopacity="0.0"
     inkscape:pagecheckerboard="0"
     inkscape:deskcolor="#d1d1d1"
     inkscape:zoom="0.58045313"
     inkscape:cx="153.32849"
     inkscape:cy="585.74928"
     inkscape:window-width="1755"
     inkscape:window-height="1057"
     inkscape:window-x="0"
     inkscape:window-y="0"
     inkscape:window-maximized="1"
     inkscape:current-layer="g40">
    <inkscape:page
       x="0"
       y="0"
       inkscape:label="1"
       id="page1"
       width="1280"
       height="1309.52"
       margin="185.94667 219.12534 75.546669 219.93333"
       bleed="0" />
  </sodipodi:namedview>
  <g
     id="layer-MC0"
     inkscape:groupmode="layer"
     inkscape:label="Слой 1">
    <g
       id="g1">
      <g
         opacity="0.369995"
         id="g40"
         clip-path="url(#clipPath41)"
         inkscape:label="g40"
         style="opacity:0.307" />
    </g>
    <path
       id="path42"
       d="m 0,0 c 1.98,0 6.46,0.17 10.49,-0.41 4.03,-0.58 6.76,-2.17 8.33,-3.63 2.46,-2.3 3.76,-5.22 3.76,-9.91 v -20.57 c 0,-2.68 -0.47,-5.07 -1.4,-7.15 -0.93,-2.09 -2.18,-3.88 -3.74,-5.37 -1.56,-1.49 -3.37,-2.63 -5.42,-3.41 -2.05,-0.78 -4.19,-1.17 -6.43,-1.17 -2.24,0 -4.38,0.39 -6.43,1.17 -2.05,0.78 -3.86,1.92 -5.42,3.41 -1.56,1.49 -2.81,3.28 -3.74,5.37 -0.93,2.08 -1.4,4.47 -1.4,7.15 v 3.35 H 0 v -2.91 c 0,-1.94 0.54,-3.45 1.62,-4.53 1.08,-1.08 2.48,-1.62 4.19,-1.62 1.71,0 3.04,0.52 3.97,1.56 0.93,1.04 1.4,2.5 1.4,4.36 v 18.67 c 0,1.56 -0.4,3 -1.51,4.02 -1.6,1.47 -3.42,1.62 -3.86,1.68 -1.04,0.14 -4.93,0.27 -5.78,0.31 m 0,0.01 -10.09,0.07 V 28.63 H 22.58 V 17.9 L 0,17.9 V 0"
       style="fill:#3b4957;fill-opacity:1;fill-rule:nonzero;stroke:none"
       transform="matrix(1.3333333,0,0,-1.3333333,602.74667,539.27987)" />
    <path
       id="path43"
       d="M 0,0 H 33.98 V -11.4 L 14.64,-79.58 H 2.57 l 20.01,68.85 H 0"
       style="fill:#3b4957;fill-opacity:1;fill-rule:nonzero;stroke:none"
       transform="matrix(1.3333333,0,0,-1.3333333,642.98667,501.09333)" />
    <path
       id="path53"
       d="m 0,0 c -13.86,-17.99 -27.71,-35.96 -41.73,-54.16 12.15,-6.88 24.12,-13.66 36.15,-20.47 0.74,0.92 1.29,1.6 1.82,2.29 5.38,6.95 10.76,13.91 16.16,20.86 0.59,0.75 1.19,1.53 1.93,2.11 1.65,1.3 3.5,1.54 5.37,0.49 1.86,-1.05 2.66,-2.71 2.46,-4.82 -0.08,-0.79 -0.29,-1.57 -0.5,-2.34 -2.5,-9.17 -5.02,-18.34 -7.53,-27.51 -0.21,-0.75 -0.36,-1.52 -0.57,-2.39 13.4,-7.69 26.68,-15.31 39.96,-22.94 13.46,7.73 26.73,15.35 39.99,22.97 -0.17,0.67 -0.26,1.06 -0.36,1.44 -2.54,9.24 -5.08,18.49 -7.61,27.73 -0.25,0.92 -0.55,1.85 -0.68,2.79 -0.31,2.24 0.76,4.24 2.66,5.18 1.85,0.91 3.93,0.61 5.54,-0.91 0.69,-0.65 1.28,-1.43 1.86,-2.19 5.39,-6.95 10.76,-13.91 16.15,-20.86 0.48,-0.61 1,-1.19 1.58,-1.89 12.08,6.84 24.01,13.6 36.1,20.45 C 134.72,-35.96 120.84,-17.95 107.01,0 71.18,-17.64 35.66,-17.59 0,0 Z m -207.38,286.13 c 0.1,-0.98 0.12,-1.53 0.23,-2.06 7.8,-39.09 15.6,-78.18 23.41,-117.27 1,-5.01 2.1,-10.01 2.98,-15.04 0.31,-1.75 1.06,-2.51 2.78,-2.93 14.27,-3.51 28.52,-7.12 42.77,-10.69 10.23,-2.57 20.45,-5.13 30.68,-7.7 0.62,-0.16 1.25,-0.31 1.84,-0.53 2.37,-0.9 3.63,-2.86 3.38,-5.19 -0.24,-2.23 -2.03,-3.99 -4.46,-4.34 -0.63,-0.09 -1.28,-0.09 -1.92,-0.1 -16.15,-0.29 -32.3,-0.58 -48.44,-0.87 -5.04,-0.09 -10.07,-0.18 -15.11,-0.28 -0.53,-0.01 -1.06,-0.14 -1.93,-0.26 12.86,-29.11 25.63,-58.02 38.52,-87.18 0.91,0.25 1.73,0.47 2.54,0.71 17.12,4.9 34.24,9.8 51.37,14.7 0.77,0.22 1.53,0.47 2.32,0.61 2.17,0.39 4.28,-0.61 5.28,-2.46 0.96,-1.78 0.74,-4 -0.71,-5.57 -0.75,-0.81 -1.67,-1.48 -2.58,-2.12 -13.11,-9.15 -26.24,-18.27 -39.36,-27.41 -0.78,-0.54 -1.55,-1.11 -2.58,-1.84 18.07,-15.25 36.01,-30.39 54.07,-45.64 17.29,14.56 34.45,29.01 51.74,43.57 -0.6,0.45 -0.96,0.74 -1.34,1 -23.44,16.1 -39.54,37.88 -49.55,64.32 -5.15,13.61 -8.23,27.71 -9.24,42.23 -0.31,4.46 -0.34,8.94 -0.48,13.41 -0.02,0.56 -0.02,1.12 0.04,1.68 0.27,2.66 2.18,4.49 4.7,4.53 2.51,0.04 4.56,-1.72 4.89,-4.34 0.15,-1.26 0.08,-2.55 0.09,-3.83 0.16,-18.09 3.33,-35.61 10,-52.44 8.96,-22.61 22.82,-41.52 42.67,-55.79 15.57,-11.2 32.94,-17.95 52.03,-19.83 25.41,-2.49 48.7,3.83 69.84,17.95 19.26,12.86 33.15,30.33 42.72,51.3 6.79,14.9 10.8,30.55 12.08,46.88 0.36,4.54 0.37,9.1 0.57,13.65 0.05,1.03 0.09,2.1 0.38,3.07 0.63,2.17 2.48,3.44 4.68,3.39 2.09,-0.05 3.79,-1.31 4.42,-3.4 0.23,-0.75 0.35,-1.57 0.35,-2.35 C 178.24,93.9 169.23,62.98 148.84,35.73 140.63,24.76 130.82,15.41 119.52,7.65 119,7.29 118.48,6.92 117.67,6.35 c 5.66,-5.08 11.47,-9.75 17.16,-14.58 5.67,-4.81 11.37,-9.59 17.06,-14.38 5.74,-4.84 11.49,-9.67 17.47,-14.7 17.99,15.18 35.92,30.31 54.06,45.62 -0.87,0.64 -1.55,1.15 -2.25,1.63 -13.12,9.13 -26.24,18.26 -39.36,27.4 -0.85,0.59 -1.73,1.17 -2.48,1.88 -1.83,1.71 -2.21,4.1 -1.08,6.11 1.07,1.91 3.21,2.91 5.54,2.29 5.02,-1.33 10,-2.79 14.99,-4.22 12.9,-3.7 25.79,-7.41 38.69,-11.1 0.68,-0.19 1.37,-0.33 2.26,-0.55 12.83,29.05 25.64,58.02 38.52,87.17 -0.87,0.09 -1.41,0.2 -1.96,0.21 -18.79,0.33 -37.57,0.65 -56.36,0.98 -2.72,0.05 -5.44,0.09 -8.15,0.23 -0.93,0.05 -1.92,0.27 -2.76,0.66 -1.73,0.81 -2.69,2.28 -2.72,4.2 -0.03,1.91 0.87,3.4 2.57,4.29 0.84,0.44 1.78,0.72 2.7,0.95 24.24,6.1 48.48,12.21 72.75,18.22 2.23,0.55 3.18,1.46 3.64,3.81 8.37,42.4 16.86,84.78 25.33,127.16 0.4,2.02 0.8,4.04 1.32,6.63 -1.1,-0.66 -1.75,-1.04 -2.38,-1.45 L 208.94,218.45 c -1.01,-0.65 -2,-1.34 -3.06,-1.88 -2.51,-1.28 -5.17,-0.61 -6.54,1.56 -1.38,2.19 -0.84,4.81 1.4,6.58 0.62,0.49 1.31,0.91 1.99,1.34 37.92,24.37 75.85,48.74 113.78,73.1 0.94,0.6 1.88,1.23 2.9,1.67 3.26,1.39 6.58,-0.56 6.73,-4.07 0.08,-1.89 -0.21,-3.83 -0.58,-5.69 -7.64,-38.39 -15.31,-76.78 -22.98,-115.16 -1.92,-9.64 -3.96,-19.25 -5.72,-28.92 -0.71,-3.89 -2.65,-5.97 -6.51,-6.9 -12.81,-3.08 -25.57,-6.36 -38.35,-9.57 -0.82,-0.21 -1.64,-0.42 -2.41,-1.04 2.84,-0.09 5.67,-0.22 8.51,-0.28 8.79,-0.17 17.59,-0.32 26.38,-0.48 0.72,-0.01 1.45,-0.03 2.15,-0.16 3.01,-0.58 4.68,-3.42 3.72,-6.34 -0.27,-0.83 -0.68,-1.62 -1.04,-2.42 -13.72,-31.06 -27.45,-62.12 -41.17,-93.19 -0.29,-0.66 -0.53,-1.33 -0.81,-2 -1.3,-3.08 -3.46,-4.2 -6.73,-3.34 -3.4,0.9 -6.76,1.91 -10.14,2.88 -6.14,1.76 -12.28,3.52 -18.42,5.28 -0.45,0.13 -0.9,0.22 -1.61,-0.06 0.58,-0.42 1.14,-0.85 1.73,-1.26 6.89,-4.8 13.76,-9.61 20.68,-14.37 2.3,-1.58 3.23,-3.64 2.74,-6.38 -0.31,-1.7 -1.43,-2.8 -2.67,-3.85 -6.18,-5.2 -12.34,-10.41 -18.52,-15.62 -13.08,-11.03 -26.15,-22.07 -39.23,-33.1 -0.12,-0.1 -0.25,-0.2 -0.37,-0.31 -3.27,-3 -6.46,-3.95 -10.93,0 -7.43,6.56 -15.13,12.82 -22.71,19.2 -0.59,0.49 -1.2,0.95 -2.14,1.17 0.35,-0.55 0.67,-1.14 1.07,-1.65 5.75,-7.48 11.51,-14.95 17.26,-22.43 0.54,-0.7 1.08,-1.39 1.61,-2.09 2.56,-3.45 2.06,-6.57 -1.44,-9.04 -0.52,-0.37 -1.09,-0.67 -1.64,-0.99 -13.21,-7.48 -26.42,-14.97 -39.64,-22.44 -0.83,-0.47 -1.69,-0.92 -2.57,-1.28 -2.6,-1.05 -4.63,-0.6 -6.45,1.54 -1.45,1.71 -2.76,3.52 -4.15,5.28 -0.49,0.62 -1,1.21 -1.88,1.65 0.81,-2.87 1.49,-5.78 2.45,-8.6 1.32,-3.87 0.78,-5.67 -2.8,-7.74 -9.28,-5.35 -18.57,-10.67 -27.86,-16 -5.06,-2.9 -10.16,-5.73 -15.17,-8.73 -2.93,-1.75 -5.62,-1.68 -8.55,0.02 -14.25,8.25 -28.55,16.4 -42.81,24.63 -1.08,0.62 -2.15,1.45 -2.9,2.42 -1.11,1.43 -0.92,3.08 -0.34,4.79 1.02,3.01 1.84,6.09 2.39,9.35 -0.38,-0.42 -0.79,-0.81 -1.13,-1.25 -1.48,-1.88 -2.9,-3.82 -4.43,-5.67 -1.93,-2.34 -4.02,-2.8 -6.84,-1.59 -0.81,0.34 -1.58,0.76 -2.35,1.19 -13.21,7.48 -26.43,14.95 -39.62,22.47 -1.16,0.66 -2.3,1.49 -3.19,2.47 -1.94,2.16 -2,4.38 -0.4,6.78 0.4,0.6 0.85,1.16 1.29,1.73 6,7.79 12,15.58 18,23.37 0.58,0.75 1.12,1.51 1.49,2.51 -0.48,-0.34 -0.99,-0.64 -1.43,-1.02 -7.89,-6.64 -15.78,-13.28 -23.67,-19.93 -0.61,-0.51 -1.22,-1.03 -1.85,-1.53 -2.06,-1.63 -4.28,-1.65 -6.52,-0.5 -0.91,0.47 -1.72,1.16 -2.51,1.82 -19.13,16.13 -38.26,32.27 -57.38,48.41 -0.67,0.57 -1.36,1.12 -1.97,1.75 -2.5,2.59 -2.27,6.4 0.51,8.65 0.43,0.35 0.91,0.66 1.37,0.98 6.63,4.61 13.26,9.22 19.88,13.84 0.63,0.44 1.24,0.93 1.69,1.73 -0.83,-0.2 -1.68,-0.36 -2.5,-0.6 -8.6,-2.47 -17.19,-4.94 -25.79,-7.41 -0.84,-0.24 -1.69,-0.52 -2.55,-0.65 -2.73,-0.41 -4.66,0.66 -5.77,3.2 -2.79,6.37 -5.55,12.75 -8.36,19.11 -11.43,25.87 -22.88,51.74 -34.32,77.61 -1.89,4.28 0.12,7.57 4.83,7.69 8.71,0.22 17.43,0.32 26.14,0.5 3.11,0.06 6.22,0.17 9.43,0.59 -0.59,0.2 -1.17,0.44 -1.77,0.59 -12.94,3.24 -25.88,6.48 -38.81,9.72 -0.54,0.14 -1.08,0.3 -1.62,0.43 -2.81,0.67 -4.35,2.47 -4.89,5.27 -0.96,4.94 -1.95,9.87 -2.94,14.81 -5.71,28.59 -11.42,57.19 -17.14,85.78 -3.07,15.35 -6.16,30.7 -9.17,46.06 -0.32,1.62 -0.46,3.36 -0.21,4.97 0.47,3.05 3.46,4.63 6.36,3.55 0.81,-0.3 1.58,-0.77 2.32,-1.24 38.4,-24.66 76.8,-49.33 115.19,-74 0.74,-0.47 1.48,-0.98 2.09,-1.59 1.69,-1.69 1.93,-4.28 0.64,-6.15 -1.25,-1.81 -3.59,-2.56 -5.73,-1.67 -1.1,0.45 -2.12,1.12 -3.12,1.76 -34.44,22.11 -68.86,44.23 -103.3,66.35 -0.8,0.51 -1.61,0.99 -2.85,1.75 z"
       style="fill:#3b4957;fill-opacity:1;fill-rule:nonzero;stroke:none"
       transform="matrix(1.3333333,0,0,-1.3333333,568.81333,661.42667)" />
    <path
       id="path54"
       d="m 0,0 c 0.04,-0.54 0,-0.71 0.07,-0.83 0.35,-0.63 0.7,-1.26 1.08,-1.87 6.44,-10.24 15.54,-17.24 26.56,-21.93 7.62,-3.24 15.66,-4.97 23.7,-6.72 11.47,-2.5 22.91,-5.07 34.12,-8.63 31.92,-10.15 55.52,-30.14 71.27,-59.6 5.78,-10.82 10.38,-22.12 14.26,-33.73 0.24,-0.72 0.51,-1.44 0.96,-2.71 0.48,1.4 0.79,2.28 1.08,3.17 4.39,13.23 9.74,26.03 16.81,38.07 10.3,17.55 23.71,32.07 41.27,42.58 10,5.99 20.75,10.24 31.86,13.64 11.09,3.39 22.46,5.6 33.76,8.14 7.73,1.73 15.37,3.7 22.55,7.17 9.72,4.7 17.72,11.36 23.5,20.55 0.49,0.78 0.9,1.6 1.35,2.41 -0.78,-0.07 -1.3,-0.39 -1.83,-0.68 -2.8,-1.54 -5.52,-3.23 -8.41,-4.58 -10.36,-4.84 -21.33,-7.08 -32.73,-7.36 -14.78,-0.35 -29.57,-0.67 -44.35,-0.98 -13.27,-0.28 -26.53,-0.52 -39.8,-0.78 -14.46,-0.29 -28.93,-0.7 -43.39,-0.83 -8.47,-0.08 -16.94,0.26 -25.41,0.43 -10.31,0.2 -20.62,0.38 -30.93,0.6 0,0 -42.99,0.92 -64.49,1.4 -4.55,0.1 -9.11,0.16 -13.66,0.4 C 25.71,-11.95 13.12,-8.24 1.65,-0.98 1.18,-0.69 0.7,-0.41 0,0.01 Z m 172.07,-156.15 c -3.31,0 -4.49,0.69 -5.51,3.84 -1.45,4.48 -2.62,9.05 -4.04,13.54 -3.58,11.38 -7.99,22.41 -13.48,33.01 -14.59,28.15 -36.75,47.24 -67.15,56.69 -10.62,3.3 -21.43,5.75 -32.28,8.11 -8.19,1.79 -16.39,3.57 -24.21,6.72 -13.49,5.44 -24.64,13.79 -32.44,26.23 -4.64,7.41 -7.58,15.47 -8.67,24.17 -0.09,0.71 -0.17,1.44 -0.09,2.15 0.25,1.97 1.15,3.52 3.17,4.08 2.06,0.57 3.97,0.26 5.49,-1.4 0.16,-0.18 0.31,-0.37 0.44,-0.57 4.9,-7.91 12.2,-13 20.38,-16.91 8.84,-4.23 18.25,-6.34 28.03,-6.57 24.3,-0.55 72.89,-1.5 72.89,-1.5 14.95,-0.31 29.9,-0.48 44.83,-0.97 16.63,-0.56 33.24,0.24 49.86,0.44 12.07,0.15 24.14,0.47 36.2,0.74 19.18,0.42 38.37,0.71 57.54,1.35 13.29,0.44 25.65,4.16 36.59,12 4.25,3.05 8.08,6.53 10.81,11.08 0.88,1.47 2.14,2.32 3.86,2.52 3.09,0.36 5.53,-1.51 5.39,-4.61 -0.13,-2.85 -0.56,-5.74 -1.27,-8.5 -5.09,-19.54 -17.34,-33.08 -35.3,-41.76 -7.75,-3.75 -16.02,-5.87 -24.38,-7.74 -11.3,-2.52 -22.67,-4.73 -33.75,-8.17 -10.1,-3.14 -19.87,-7.03 -28.97,-12.5 -15.34,-9.22 -27.23,-21.84 -36.49,-37.04 -8.25,-13.53 -14.08,-28.12 -18.75,-43.2 -1.18,-3.81 -2.16,-7.68 -3.4,-11.48 -0.99,-3.04 -2.17,-3.75 -5.31,-3.76 z"
       style="fill:#3b4957;fill-opacity:1;fill-rule:nonzero;stroke:none"
       sodipodi:nodetypes="ccccccccccccccccccccccccccccccccccccccccccccccccccccccccccccsccc"
       transform="matrix(1.3333333,0,0,-1.3333333,410.84,251.25333)" />
    <path
       id="path55"
       d="m 0,0 c -1.04,-1.07 -1.84,-1.94 -2.69,-2.77 -6.56,-6.35 -14.14,-10.96 -23.1,-12.99 -17.7,-4.01 -34.25,4.42 -41.6,21.14 -4.57,10.4 -5,21.2 -2.63,32.16 0.62,2.88 1.65,5.67 2.51,8.49 0.16,0.51 0.46,0.97 0.79,1.63 C -44.51,31.79 -22.42,16.01 -0.01,0 Z"
       style="fill:#3b4957;fill-opacity:1;fill-rule:nonzero;stroke:none"
       transform="matrix(1.3333333,0,0,-1.3333333,584.96,405.02653)" />
    <path
       id="path56"
       d="M 0,0 C 1.51,-3.05 2.32,-6.04 3.04,-9.05 5.7,-20.24 5.42,-31.28 0.79,-41.92 -4.25,-53.48 -12.78,-61.1 -25.32,-63.73 c -8.01,-1.68 -15.73,-0.41 -23.18,2.76 -6.56,2.79 -12.19,6.94 -17.11,12.08 -0.22,0.23 -0.43,0.47 -0.62,0.73 -0.08,0.12 -0.08,0.29 -0.18,0.7 22.04,15.75 44.16,31.55 66.42,47.46 z"
       style="fill:#3b4957;fill-opacity:1;fill-rule:nonzero;stroke:none"
       transform="matrix(1.3333333,0,0,-1.3333333,784.34667,341.43987)" />
    <path
       id="path57"
       d="m 0,0 c -23.86,0.85 -41.44,11.93 -52.61,32.97 -6.3,11.86 -8.46,24.69 -7.46,38.07 0.76,10.17 3.47,19.79 7.97,28.93 0.46,0.93 0.96,1.86 1.6,2.66 1.45,1.79 3.89,2.29 5.84,1.32 1.92,-0.96 2.96,-2.98 2.52,-5.21 -0.18,-0.92 -0.58,-1.82 -1.01,-2.67 -5.48,-10.88 -7.99,-22.41 -7.22,-34.55 1.03,-16.38 7.05,-30.57 20.06,-40.94 15.65,-12.47 33.03,-13.82 51.22,-6.22 9.65,4.03 17.38,10.65 23.76,18.9 0.63,0.82 1.24,1.68 2,2.38 1.84,1.71 4.23,1.84 6.14,0.44 1.87,-1.37 2.47,-3.78 1.44,-6.01 C 53.98,29.49 53.64,28.94 53.26,28.44 42.9,14.65 29.62,5.26 12.65,1.43 8.5,0.49 4.31,-0.01 -0.01,0 Z"
       style="fill:#3b4957;fill-opacity:1;fill-rule:nonzero;stroke:none"
       transform="matrix(1.3333333,0,0,-1.3333333,539.18667,461.50667)" />
    <path
       id="path58"
       d="m 0,0 c -0.1,-11.62 -4.52,-26.22 -14.62,-38.8 -10.36,-12.91 -23.87,-20.34 -40.37,-21.88 -12.87,-1.2 -24.93,1.77 -36.15,8.13 -8.83,4.99 -16.18,11.66 -22.21,19.8 -0.56,0.76 -1.09,1.6 -1.4,2.49 -0.74,2.1 0.04,4.29 1.82,5.49 1.82,1.23 4.05,1.16 5.77,-0.35 0.89,-0.78 1.59,-1.78 2.33,-2.72 7.67,-9.84 17.23,-17.08 29.18,-20.88 23.26,-7.39 47.07,2.37 58.74,24.06 5.84,10.86 7.96,22.48 6.89,34.75 -0.77,8.88 -3.19,17.25 -7.19,25.19 -0.32,0.64 -0.62,1.3 -0.83,1.99 -0.66,2.2 0.23,4.46 2.15,5.58 1.9,1.1 4.4,0.77 5.9,-0.94 0.73,-0.82 1.28,-1.83 1.77,-2.83 C -2.8,28.16 0.03,16.63 -0.01,0.02 Z"
       style="fill:#3b4957;fill-opacity:1;fill-rule:nonzero;stroke:none"
       transform="matrix(1.3333333,0,0,-1.3333333,821.48,380.21333)" />
  </g>
</svg>
