<?xml version="1.0" encoding="UTF-8" standalone="no"?>
<!-- Created with Inkscape (http://www.inkscape.org/) -->

<svg
   version="1.1"
   id="svg1"
   width="1280"
   height="1309.52"
   viewBox="0 0 1280 1309.52"
   sodipodi:docname="vector_sova.svg"
   inkscape:version="1.4.3 (0d15f75042, 2025-12-25)"
   xmlns:inkscape="http://www.inkscape.org/namespaces/inkscape"
   xmlns:sodipodi="http://sodipodi.sourceforge.net/DTD/sodipodi-0.dtd"
   xmlns="http://www.w3.org/2000/svg"
   xmlns:svg="http://www.w3.org/2000/svg">
  <defs
     id="defs1">
    <clipPath
       clipPathUnits="userSpaceOnUse"
       id="clipPath1">
      <path
         d="M -98.67,425.72101 H 532.03602 V -197.92001 H -98.67 Z"
         id="path1" />
    </clipPath>
    <clipPath
       clipPathUnits="userSpaceOnUse"
       id="clipPath2">
      <path
         d="M -307.31001,623.63101 H 323.39601 V -0.0100025 h -630.70602 z"
         id="path2" />
    </clipPath>
    <clipPath
       clipPathUnits="userSpaceOnUse"
       id="clipPath41">
      <path
         d="M 0,0 H 1280 V 1309.52 H 0 Z"
         id="path41" />
    </clipPath>
    <linearGradient
       x1="0"
       y1="0"
       x2="1"
       y2="0"
       gradientUnits="userSpaceOnUse"
       gradientTransform="matrix(268.12561,0,0,-268.12561,480,577.42255)"
       spreadMethod="pad"
       id="linearGradient48">
      <stop
         style="stop-opacity:1;stop-color:#3ea8a9"
         offset="0"
         id="stop45" />
      <stop
         style="stop-opacity:1;stop-color:#3ea8a9"
         offset="0.37996"
         id="stop46" />
      <stop
         style="stop-opacity:1;stop-color:#84cfcb"
         offset="0.988072"
         id="stop47" />
      <stop
         style="stop-opacity:1;stop-color:#84cfcb"
         offset="1"
         id="stop48" />
    </linearGradient>
    <linearGradient
       x1="0"
       y1="0"
       x2="1"
       y2="0"
       gradientUnits="userSpaceOnUse"
       gradientTransform="matrix(-268.00568,0,0,-268.00568,480,577.42255)"
       spreadMethod="pad"
       id="linearGradient52">
      <stop
         style="stop-opacity:1;stop-color:#e08125"
         offset="0"
         id="stop49" />
      <stop
         style="stop-opacity:1;stop-color:#e08125"
         offset="0.37996"
         id="stop50" />
      <stop
         style="stop-opacity:1;stop-color:#f8c539"
         offset="0.988072"
         id="stop51" />
      <stop
         style="stop-opacity:1;stop-color:#f8c539"
         offset="1"
         id="stop52" />
    </linearGradient>
  </defs>
  <sodipodi:namedview
     id="namedview1"
     pagecolor="#ffffff"
     bordercolor="#000000"
     borderopacity="0.25"
     inkscape:showpageshadow="2"
     inkscape:pageopacity="0.0"
     inkscape:pagecheckerboard="0"
     inkscape:deskcolor="#d1d1d1"
     inkscape:zoom="0.89701415"
     inkscape:cx="531.20678"
     inkscape:cy="755.84092"
     inkscape:window-width="1755"
     inkscape:window-height="1057"
     inkscape:window-x="0"
     inkscape:window-y="0"
     inkscape:window-maximized="1"
     inkscape:current-layer="g44">
    <inkscape:page
       x="0"
       y="0"
       inkscape:label="1"
       id="page1"
       width="1280"
       height="1309.52"
       margin="185.94667 219.12534 75.546669 219.93333"
       bleed="0" />
  </sodipodi:namedview>
  <g
     id="layer-MC0"
     inkscape:groupmode="layer"
     inkscape:label="Слой 1">
    <g
       opacity="0.369995"
       id="g40"
       clip-path="url(#clipPath41)">
      <path
         d="m 0,0 c -2.66,0.51 -5.34,0.91 -7.96,1.57 -0.93,0.23 -1.82,0.96 -2.53,1.66 -10.17,9.96 -20.31,19.95 -30.45,29.94 -66.17,65.13 -132.34,130.26 -198.51,195.4 -2.34,2.3 -4.62,4.65 -6.93,6.98 -0.39,0.4 -0.9,0.77 -1.09,1.26 -1.26,3.25 -2.45,6.52 -3.66,9.79 0.16,0.09 0.31,0.18 0.47,0.27 0.63,-0.57 1.29,-1.11 1.9,-1.71 21.61,-21.14 43.25,-42.25 64.8,-63.44 C -123.24,122 -62.55,62.24 -1.86,2.49 -1.15,1.79 -0.45,1.07 0.25,0.35 0.17,0.23 0.09,0.11 0.01,-0.01 Z"
         style="fill:#f7ae3b;fill-opacity:1;fill-rule:nonzero;stroke:none"
         transform="matrix(1.3333333,0,0,-1.3333333,563.05333,900.8)"
         id="path3" />
      <path
         d="m 0,0 c 2.84,-0.74 5.71,-1.41 8.51,-2.28 0.77,-0.24 1.4,-1.04 2.02,-1.65 11.83,-11.58 23.67,-23.15 35.47,-34.76 59.97,-59.02 119.92,-118.05 179.9,-177.05 1.6,-1.58 2.72,-3.24 3.16,-5.45 0.43,-2.17 1.09,-4.29 1.71,-6.66 C 228.37,-226.28 2.23,-3.46 0,0"
         style="fill:#f7ae3b;fill-opacity:1;fill-rule:nonzero;stroke:none"
         transform="matrix(1.3333333,0,0,-1.3333333,741.49333,86.866667)"
         id="path4" />
      <path
         d="m 0,0 c 2.61,-1.75 172.06,-168.12 175.39,-172.27 -2.18,0.82 -3.9,1.55 -5.69,2.11 -4.68,1.47 -8.39,4.19 -11.89,7.65 -48.52,47.93 -97.14,95.75 -145.73,143.6 -1.48,1.46 -2.86,3.03 -4.43,4.38 -4.28,3.68 -5.92,8.79 -7.71,13.83 -0.07,0.19 0.04,0.45 0.06,0.7 z"
         style="fill:#f7ae3b;fill-opacity:1;fill-rule:nonzero;stroke:none"
         transform="matrix(1.3333333,0,0,-1.3333333,257.38667,651.66667)"
         id="path5" />
      <path
         d="m 0,0 c 3.25,-1.29 6.52,-2.53 9.73,-3.92 0.84,-0.36 1.52,-1.15 2.2,-1.82 14.56,-14.27 29.12,-28.53 43.66,-42.82 18.59,-18.27 37.16,-36.55 55.7,-54.86 1.29,-1.27 2.42,-2.77 3.34,-4.33 2.22,-3.79 4.27,-7.68 6.38,-11.53 0.29,-0.53 0.52,-1.09 0.77,-1.64 l -0.45,-0.32 C 81.05,-81.4 40.78,-41.57 0.52,-1.72 c -0.38,0.37 -0.58,0.92 -0.87,1.38 0.12,0.11 0.23,0.22 0.35,0.33 z"
         style="fill:#f7ae3b;fill-opacity:1;fill-rule:nonzero;stroke:none"
         transform="matrix(1.3333333,0,0,-1.3333333,852.92,139.6)"
         id="path6" />
      <path
         d="m 0,0 c 0.57,-0.54 1.15,-1.08 1.71,-1.63 35.45,-34.9 70.9,-69.8 106.38,-104.67 1.45,-1.42 2.41,-2.83 2.33,-4.95 -0.06,-1.58 0.24,-3.17 0,-5.04 -0.6,0.55 -1.23,1.08 -1.81,1.65 -23.54,23.17 -47.08,46.34 -70.62,69.52 -8.78,8.64 -17.58,17.26 -26.31,25.94 -1.17,1.16 -2.15,2.56 -3.01,3.98 -3.02,4.98 -5.94,10.02 -8.9,15.04 0.07,0.06 0.14,0.11 0.22,0.17 z"
         style="fill:#f7ae3b;fill-opacity:1;fill-rule:nonzero;stroke:none"
         transform="matrix(1.3333333,0,0,-1.3333333,912.52,306.61333)"
         id="path7" />
      <path
         d="m 0,0 c -0.46,0.22 -0.94,0.42 -1.38,0.68 -4.72,2.69 -9.44,5.38 -14.14,8.1 -0.89,0.52 -1.77,1.11 -2.5,1.83 -29.7,29.32 -59.38,58.65 -89.06,87.99 -0.56,0.56 -1.11,1.16 -1.55,1.81 -0.53,0.78 -0.54,1.65 -0.06,2.5 0.51,0.89 1.33,0.63 2.12,0.63 1.49,-0.01 2.5,-0.81 3.5,-1.79 C -86.5,85.53 -69.89,69.36 -53.34,53.12 -35.99,36.1 -18.69,19.03 -1.38,1.97 -0.84,1.43 -0.33,0.86 0.2,0.31 0.13,0.21 0.06,0.1 -0.01,0 Z"
         style="fill:#f7ae3b;fill-opacity:1;fill-rule:nonzero;stroke:none"
         transform="matrix(1.3333333,0,0,-1.3333333,818.09333,214.45333)"
         id="path8" />
      <path
         d="m 0,0 c -0.5,0.44 -1.03,0.87 -1.51,1.34 -28.6,28.15 -57.2,56.29 -85.79,84.45 -3.07,3.03 -6.11,6.1 -9.08,9.23 -0.67,0.7 -1.19,1.7 -1.41,2.65 -0.43,1.89 -0.6,3.84 -0.88,5.77 0.16,0.08 0.33,0.17 0.49,0.25 0.75,-0.66 1.54,-1.3 2.25,-2 18.18,-17.77 36.36,-35.53 54.51,-53.32 11.3,-11.08 22.56,-22.21 33.86,-33.29 1.16,-1.14 2.05,-2.38 2.71,-3.89 C -3.48,8.04 -1.96,4.96 -0.5,1.85 -0.24,1.3 0.01,0.74 0.26,0.19 0.17,0.13 0.08,0.06 -0.01,0 Z"
         style="fill:#f7ae3b;fill-opacity:1;fill-rule:nonzero;stroke:none"
         transform="matrix(1.3333333,0,0,-1.3333333,351.49333,643.17333)"
         clip-path="url(#clipPath1)"
         id="path9" />
      <path
         d="m 0,0 c -2.48,0 -4.54,0.03 -6.6,-0.01 -1.19,-0.02 -1.87,0.75 -2.61,1.48 -5.41,5.33 -10.83,10.66 -16.24,15.98 -25.07,24.68 -50.15,49.36 -75.23,74.02 -0.67,0.66 -1.52,1.12 -2.28,1.68 0.17,0.2 0.33,0.4 0.5,0.6 0.42,-0.15 0.86,-0.27 1.26,-0.46 3.57,-1.59 7.16,-3.16 10.7,-4.82 0.92,-0.43 1.81,-1.03 2.53,-1.74 C -59.12,58.37 -30.28,29.99 -1.45,1.61 -1.01,1.18 -0.62,0.69 0,-0.01 Z"
         style="fill:#f7ae3b;fill-opacity:1;fill-rule:nonzero;stroke:none"
         transform="matrix(1.3333333,0,0,-1.3333333,629.68,907.05333)"
         clip-path="url(#clipPath2)"
         id="path10" />
      <path
         d="m 0,0 c 0.57,-0.51 1.17,-1 1.71,-1.53 25.63,-25.22 51.24,-50.45 76.9,-75.64 1.24,-1.21 1.97,-2.38 1.7,-4.16 -0.23,-1.46 -0.23,-2.94 -0.37,-4.84 -0.98,0.9 -1.63,1.47 -2.24,2.07 -24.61,24.21 -49.2,48.43 -73.83,72.61 -1.49,1.46 -2.5,2.98 -2.83,5.07 -0.33,2.09 -0.95,4.13 -1.44,6.19 0.14,0.08 0.27,0.15 0.41,0.23 z"
         style="fill:#f7ae3b;fill-opacity:1;fill-rule:nonzero;stroke:none"
         transform="matrix(1.3333333,0,0,-1.3333333,953.72,399.27987)"
         id="path11" />
      <path
         d="m 0,0 c -0.29,0.26 -0.59,0.5 -0.86,0.77 -24.69,24.36 -49.37,48.75 -74.12,73.06 -1.81,1.78 -2.49,3.52 -1.91,5.9 0.19,0.77 0.21,1.57 0.36,2.8 0.84,-0.74 1.48,-1.26 2.07,-1.83 14.75,-14.41 29.5,-28.82 44.23,-43.25 C -21.04,28.44 -11.9,19.38 -2.69,10.39 -1.55,9.28 -0.81,8.15 -0.65,6.51 -0.44,4.39 0.04,2.29 0.41,0.18 0.27,0.12 0.14,0.07 0,0.01 Z"
         style="fill:#f7ae3b;fill-opacity:1;fill-rule:nonzero;stroke:none"
         transform="matrix(1.3333333,0,0,-1.3333333,322.96,559.38667)"
         id="path12" />
      <path
         d="m 0,0 c -2.87,0.64 -5.75,1.23 -8.6,1.96 -0.64,0.16 -1.23,0.72 -1.73,1.21 -23.42,23.06 -46.82,46.14 -70.22,69.21 -0.62,0.61 -1.19,1.26 -2.07,2.2 2.52,0.53 4.73,0.46 6.9,0.32 0.58,-0.04 1.15,-0.79 1.66,-1.28 4.24,-4.13 8.46,-8.27 12.68,-12.43 C -41.43,41.56 -21.49,21.93 -1.54,2.29 -0.93,1.69 -0.35,1.05 0.25,0.43 0.17,0.29 0.08,0.14 0,0"
         style="fill:#f7ae3b;fill-opacity:1;fill-rule:nonzero;stroke:none"
         transform="matrix(1.3333333,0,0,-1.3333333,725.57333,175.54667)"
         id="path13" />
      <path
         d="m 0,0 c -2.36,-0.22 -4.18,-0.46 -6.01,-0.52 -0.63,-0.02 -1.33,0.36 -1.91,0.69 -0.47,0.27 -0.82,0.76 -1.21,1.15 -23.25,22.89 -46.51,45.78 -69.76,68.67 -0.55,0.54 -1.06,1.13 -1.93,2.06 3.17,-0.49 5.85,-0.8 8.47,-1.37 0.84,-0.18 1.61,-0.97 2.28,-1.62 16.09,-15.81 32.16,-31.63 48.23,-47.45 6.55,-6.45 13.11,-12.9 19.67,-19.35 0.61,-0.61 1.2,-1.24 2.18,-2.27 z"
         style="fill:#f7ae3b;fill-opacity:1;fill-rule:nonzero;stroke:none"
         transform="matrix(1.3333333,0,0,-1.3333333,684.24,904.88)"
         id="path14" />
      <path
         d="m 0,0 c 0.8,-0.72 1.39,-1.22 1.93,-1.75 22.16,-21.8 44.3,-43.62 66.5,-65.38 1.37,-1.34 1.89,-2.62 1.45,-4.42 -0.3,-1.21 -0.49,-2.44 -0.78,-3.94 -0.79,0.71 -1.33,1.17 -1.83,1.66 -21.7,21.35 -43.39,42.72 -65.12,64.04 -1.47,1.44 -2.37,2.87 -2.16,4.98 0.14,1.47 0.03,2.96 0.03,4.8 z"
         style="fill:#f7ae3b;fill-opacity:1;fill-rule:nonzero;stroke:none"
         transform="matrix(1.3333333,0,0,-1.3333333,963.04,458.08)"
         id="path15" />
      <path
         d="M 0,0 C -0.35,0.32 -0.7,0.63 -1.04,0.96 -22.53,22.17 -44,43.4 -65.55,64.55 c -1.69,1.66 -2.43,3.19 -1.54,5.42 0.29,0.73 0.4,1.54 0.68,2.67 0.79,-0.69 1.44,-1.21 2.03,-1.8 15.7,-15.36 31.4,-30.73 47.1,-46.1 C -11.86,19.43 -6.51,14.05 -1.03,8.8 0.26,7.57 0.78,6.33 0.61,4.6 0.47,3.12 0.58,1.62 0.58,0.13 0.39,0.09 0.2,0.04 0.01,0 Z"
         style="fill:#f7ae3b;fill-opacity:1;fill-rule:nonzero;stroke:none"
         transform="matrix(1.3333333,0,0,-1.3333333,317.25333,499.22667)"
         id="path16" />
      <path
         d="M 0,0 C 2.22,0.34 3.85,0.71 5.5,0.78 6.17,0.81 7,0.36 7.54,-0.12 9.22,-1.6 10.8,-3.18 12.4,-4.75 31.89,-23.92 51.37,-43.1 70.85,-62.28 c 0.56,-0.55 1.08,-1.13 2.02,-2.11 -2.91,0.04 -5.34,0.08 -7.73,0.41 -0.68,0.09 -1.31,0.84 -1.87,1.38 C 53.29,-52.8 43.31,-43 33.36,-33.17 22.95,-22.9 12.56,-12.6 2.17,-2.31 1.56,-1.7 0.99,-1.05 0.01,-0.01 Z"
         style="fill:#f7ae3b;fill-opacity:1;fill-rule:nonzero;stroke:none"
         transform="matrix(1.3333333,0,0,-1.3333333,570.16,81.093333)"
         id="path17" />
      <path
         d="m 0,0 c 2.06,0 4.12,0.04 6.18,-0.03 0.5,-0.02 1.05,-0.32 1.47,-0.62 0.51,-0.37 0.93,-0.87 1.38,-1.32 19.88,-19.56 39.76,-39.13 59.63,-58.7 0.61,-0.6 1.19,-1.24 2.07,-2.16 -2,-0.43 -3.66,-0.88 -5.35,-1.11 -0.6,-0.08 -1.3,0.32 -1.91,0.61 -0.34,0.16 -0.57,0.54 -0.86,0.82 -20.39,20.07 -40.78,40.14 -61.19,60.19 -0.56,0.55 -1.31,0.91 -1.97,1.36 l 0.53,0.95 z"
         style="fill:#f7ae3b;fill-opacity:1;fill-rule:nonzero;stroke:none"
         transform="matrix(1.3333333,0,0,-1.3333333,637.30667,813.18667)"
         id="path18" />
      <path
         d="m 0,0 c 21.5,-21.16 42.61,-41.94 63.75,-62.75 -0.55,-1.96 -1.07,-3.79 -1.66,-5.87 -0.62,0.5 -1.13,0.84 -1.55,1.26 -19.99,19.66 -39.97,39.34 -59.97,58.98 -1.01,0.99 -1.49,1.96 -1.23,3.36 0.27,1.47 0.4,2.97 0.66,5 z"
         style="fill:#f7ae3b;fill-opacity:1;fill-rule:nonzero;stroke:none"
         transform="matrix(1.3333333,0,0,-1.3333333,961.90667,513.17333)"
         id="path19" />
      <path
         d="m 0,0 c -21.18,20.86 -41.94,41.31 -62.76,61.81 0.61,1.87 1.17,3.57 1.83,5.6 0.89,-0.8 1.55,-1.35 2.15,-1.94 C -43.72,50.71 -28.66,35.95 -13.6,21.18 -9.21,16.87 -4.86,12.52 -0.43,8.26 0.71,7.17 1.33,6.15 0.79,4.51 0.38,3.25 0.31,1.88 -0.01,0 Z"
         style="fill:#f7ae3b;fill-opacity:1;fill-rule:nonzero;stroke:none"
         transform="matrix(1.3333333,0,0,-1.3333333,321.62667,450.46667)"
         id="path20" />
      <path
         d="m 0,0 c -0.26,-0.22 -0.31,-0.3 -0.37,-0.3 -1.98,-0.26 -4.14,-1.12 -5.87,-0.59 -1.72,0.53 -3.06,2.41 -4.47,3.8 -17.69,17.43 -35.37,34.89 -53.05,52.34 -0.67,0.66 -1.29,1.36 -2.15,2.26 1.83,0.53 3.35,0.94 4.85,1.43 0.85,0.28 1.35,-0.17 1.88,-0.69 1.61,-1.56 3.25,-3.08 4.84,-4.64 C -36.69,36.25 -19.04,18.87 -1.4,1.5 -0.95,1.06 -0.53,0.58 0.01,0.01 Z"
         style="fill:#f7ae3b;fill-opacity:1;fill-rule:nonzero;stroke:none"
         transform="matrix(1.3333333,0,0,-1.3333333,611.54667,168.46667)"
         id="path21" />
      <path
         d="m 0,0 c -1.93,-0.64 -3.48,-1.22 -5.07,-1.64 -0.44,-0.11 -1.04,0.17 -1.49,0.41 -0.4,0.22 -0.7,0.65 -1.04,0.98 -18.81,18.51 -37.61,37.02 -56.42,55.54 -0.55,0.55 -1.07,1.13 -1.85,1.97 2.14,0.39 3.92,0.77 5.72,1.01 0.47,0.06 1.04,-0.25 1.49,-0.51 0.4,-0.24 0.7,-0.65 1.04,-0.99 C -39.15,38.6 -20.69,20.42 -2.22,2.25 -1.56,1.6 -0.91,0.92 0,0 Z"
         style="fill:#f7ae3b;fill-opacity:1;fill-rule:nonzero;stroke:none"
         transform="matrix(1.3333333,0,0,-1.3333333,773.76,885.18667)"
         id="path22" />
      <path
         d="m 0,0 c 0.96,-0.91 1.55,-1.44 2.11,-2 18.62,-18.32 37.22,-36.66 55.88,-54.94 1.4,-1.37 1.95,-2.55 0.93,-4.32 -0.51,-0.88 -0.83,-1.86 -1.32,-3.01 -0.75,0.69 -1.33,1.19 -1.88,1.73 -18.51,18.21 -36.99,36.44 -55.54,54.6 -1.38,1.36 -1.91,2.57 -1.16,4.37 0.42,1 0.59,2.11 0.98,3.56 z"
         style="fill:#f7ae3b;fill-opacity:1;fill-rule:nonzero;stroke:none"
         transform="matrix(1.3333333,0,0,-1.3333333,953.97333,558.76)"
         id="path23" />
      <path
         d="m 0,0 c -0.66,-2.02 -1.23,-3.74 -1.93,-5.88 -19.75,19.44 -39.26,38.64 -58.89,57.96 0.39,0.94 0.74,1.81 1.11,2.67 0.35,0.8 0.74,1.58 1.29,2.75 C -38.85,38.24 -19.46,19.16 0,0"
         style="fill:#f7ae3b;fill-opacity:1;fill-rule:nonzero;stroke:none"
         transform="matrix(1.3333333,0,0,-1.3333333,334.74667,396.24)"
         id="path24" />
      <path
         d="M 0,0 C 1.67,0.67 2.97,1.21 4.28,1.72 5.24,2.1 5.76,1.38 6.32,0.84 c 3.64,-3.48 7.32,-6.92 10.91,-10.45 14.43,-14.17 28.84,-28.36 43.25,-42.55 0.5,-0.49 0.96,-1.03 1.72,-1.84 -2.15,-0.61 -4.01,-1.13 -6.06,-1.71 C 37.52,-37.18 18.55,-19.03 -0.01,0 Z"
         style="fill:#f7ae3b;fill-opacity:1;fill-rule:nonzero;stroke:none"
         transform="matrix(1.3333333,0,0,-1.3333333,483.61333,105.50667)"
         id="path25" />
      <path
         d="M 0,0 C -0.33,-0.31 -0.47,-0.53 -0.67,-0.63 -2.12,-1.29 -3.58,-1.93 -5.22,-2.64 -24.11,15.95 -43,34.54 -62.1,53.34 c 2.14,0.73 3.94,1.34 5.88,2 C -37.47,36.88 -18.75,18.46 0,0 Z"
         style="fill:#f7ae3b;fill-opacity:1;fill-rule:nonzero;stroke:none"
         transform="matrix(1.3333333,0,0,-1.3333333,814.68,868.62667)"
         id="path26" />
      <path
         d="m 0,0 c -0.86,-1.64 -1.66,-3.18 -2.47,-4.73 -1.64,0.82 -52.81,50.84 -56.55,55.27 0.67,1.57 1.38,3.24 2.26,5.3 C -37.72,37.16 -18.91,18.61 0,-0.01 Z"
         style="fill:#f7ae3b;fill-opacity:1;fill-rule:nonzero;stroke:none"
         transform="matrix(1.3333333,0,0,-1.3333333,1014.0533,680.68)"
         id="path27" />
      <path
         d="m 0,0 c 0.95,1.69 1.77,3.13 2.78,4.91 18.95,-18.4 37.49,-36.84 56.23,-55.22 -0.82,-1.79 -1.56,-3.43 -2.45,-5.38 C 37.57,-36.99 18.81,-18.52 0.01,0 Z"
         style="fill:#f7ae3b;fill-opacity:1;fill-rule:nonzero;stroke:none"
         transform="matrix(1.3333333,0,0,-1.3333333,270.98667,291.78667)"
         id="path28" />
      <path
         d="m 0,0 c 0.94,1.68 1.79,3.19 2.81,5.01 18.51,-18.22 36.83,-36.26 55.24,-54.39 -1.02,-1.59 -1.96,-3.05 -3.07,-4.77 C 36.55,-36 18.29,-18.02 0,0 Z"
         style="fill:#f7ae3b;fill-opacity:1;fill-rule:nonzero;stroke:none"
         transform="matrix(1.3333333,0,0,-1.3333333,919.4,644.85333)"
         id="path29" />
      <path
         d="m 0,0 c 1.88,0.91 3.43,1.67 5.29,2.57 18.15,-17.86 36.33,-35.76 54.78,-53.91 -1.8,-1.01 -3.36,-1.88 -5.03,-2.82 -18.29,18 -36.5,35.92 -55.03,54.16 z"
         style="fill:#f7ae3b;fill-opacity:1;fill-rule:nonzero;stroke:none"
         transform="matrix(1.3333333,0,0,-1.3333333,769.65333,782.64)"
         id="path30" />
      <path
         d="m 0,0 c -0.98,-1.6 -1.89,-3.08 -2.97,-4.85 -18.36,18.07 -36.56,35.98 -54.85,53.98 1.11,1.56 2.11,2.96 3.26,4.57 C -36.29,35.72 -18.19,17.9 0,-0.01 Z"
         style="fill:#f7ae3b;fill-opacity:1;fill-rule:nonzero;stroke:none"
         transform="matrix(1.3333333,0,0,-1.3333333,368.73333,324)"
         id="path31" />
      <path
         d="M 0,0 C -1.19,-1.47 -2.27,-2.8 -3.51,-4.33 -21.55,13.43 -39.4,31 -57.34,48.66 c 1.12,1.51 2.15,2.9 3.33,4.49 C -35.95,35.38 -18.04,17.75 0,0 Z"
         style="fill:#f7ae3b;fill-opacity:1;fill-rule:nonzero;stroke:none"
         transform="matrix(1.3333333,0,0,-1.3333333,972.74667,744.8)"
         id="path32" />
      <path
         d="M 0,0 C 1.72,1.1 3.13,2 4.79,3.06 22.63,-14.5 40.47,-32.06 58.52,-49.83 56.88,-50.98 55.48,-51.97 53.91,-53.07 35.94,-35.39 18.07,-17.8 -0.01,-0.01 Z"
         style="fill:#f7ae3b;fill-opacity:1;fill-rule:nonzero;stroke:none"
         transform="matrix(1.3333333,0,0,-1.3333333,804.8,763.58667)"
         id="path33" />
      <path
         d="m 0,0 c -2.04,-0.91 -3.69,-1.65 -5.5,-2.46 -18,17.78 -35.96,35.52 -54.16,53.5 1.74,0.95 3.17,1.74 4.77,2.62 C -36.41,36.15 -18.56,18.07 0,0.01 Z"
         style="fill:#f7ae3b;fill-opacity:1;fill-rule:nonzero;stroke:none"
         transform="matrix(1.3333333,0,0,-1.3333333,519.57333,193.92)"
         id="path34" />
      <path
         d="m 0,0 c -1.23,-1.53 -2.3,-2.88 -3.49,-4.36 -17.96,17.69 -35.76,35.23 -53.64,52.84 1.27,1.45 2.36,2.69 3.65,4.15 C -35.62,35.05 -17.92,17.64 0,0"
         style="fill:#f7ae3b;fill-opacity:1;fill-rule:nonzero;stroke:none"
         transform="matrix(1.3333333,0,0,-1.3333333,392.16,291.09333)"
         id="path35" />
      <path
         d="M 0,0 C 1.77,1.13 3.11,1.98 4.73,3.02 22.6,-14.4 40.33,-31.97 58.35,-49.67 56.64,-50.69 55.11,-51.6 53.42,-52.61 35.64,-35.1 17.96,-17.69 0,0 Z"
         style="fill:#f7ae3b;fill-opacity:1;fill-rule:nonzero;stroke:none"
         transform="matrix(1.3333333,0,0,-1.3333333,410.05333,143.46667)"
         id="path36" />
      <path
         d="m 0,0 c 1.49,1.18 2.85,2.25 4.39,3.47 17.64,-17.36 35.18,-34.62 52.96,-52.12 -1.45,-1.13 -2.79,-2.18 -4.4,-3.44 -17.62,17.34 -35.21,34.64 -52.94,52.1 z"
         style="fill:#f7ae3b;fill-opacity:1;fill-rule:nonzero;stroke:none"
         transform="matrix(1.3333333,0,0,-1.3333333,376.10667,167.93333)"
         id="path37" />
      <path
         d="m 0,0 c -1.52,-1.28 -2.85,-2.39 -4.27,-3.57 -17.79,17.51 -35.44,34.88 -53.31,52.47 1.45,1.21 2.76,2.3 4.28,3.56 C -35.52,34.96 -17.84,17.56 0,0 Z"
         style="fill:#f7ae3b;fill-opacity:1;fill-rule:nonzero;stroke:none"
         transform="matrix(1.3333333,0,0,-1.3333333,914.66667,805.4)"
         id="path38" />
      <path
         d="m 0,0 c 1.31,1.38 2.46,2.59 3.82,4.01 17.79,-17.51 35.48,-34.92 53.36,-52.52 -1.41,-1.26 -2.7,-2.41 -4.14,-3.7 -17.57,17.29 -35.26,34.71 -53.03,52.2 z"
         style="fill:#f7ae3b;fill-opacity:1;fill-rule:nonzero;stroke:none"
         transform="matrix(1.3333333,0,0,-1.3333333,869.37333,711.45333)"
         id="path39" />
      <path
         d="m 0,0 c -1.38,-1.31 -1.008,-4.099 -2.448,-5.469 -17.47,17.2 -28.474,27.505 -46.214,44.975 1.33,1.34 2.54,2.56 3.9,3.93"
         style="fill:#f7ae3b;fill-opacity:1;fill-rule:nonzero;stroke:none"
         transform="matrix(1.3333333,0,0,-1.3333333,409.9496,248.0484)"
         id="path40" />
    </g>
    <path
       id="path42"
       d="m 0,0 c 1.98,0 6.46,0.17 10.49,-0.41 4.03,-0.58 6.76,-2.17 8.33,-3.63 2.46,-2.3 3.76,-5.22 3.76,-9.91 v -20.57 c 0,-2.68 -0.47,-5.07 -1.4,-7.15 -0.93,-2.09 -2.18,-3.88 -3.74,-5.37 -1.56,-1.49 -3.37,-2.63 -5.42,-3.41 -2.05,-0.78 -4.19,-1.17 -6.43,-1.17 -2.24,0 -4.38,0.39 -6.43,1.17 -2.05,0.78 -3.86,1.92 -5.42,3.41 -1.56,1.49 -2.81,3.28 -3.74,5.37 -0.93,2.08 -1.4,4.47 -1.4,7.15 v 3.35 H 0 v -2.91 c 0,-1.94 0.54,-3.45 1.62,-4.53 1.08,-1.08 2.48,-1.62 4.19,-1.62 1.71,0 3.04,0.52 3.97,1.56 0.93,1.04 1.4,2.5 1.4,4.36 v 18.67 c 0,1.56 -0.4,3 -1.51,4.02 -1.6,1.47 -3.42,1.62 -3.86,1.68 -1.04,0.14 -4.93,0.27 -5.78,0.31 m 0,0.01 -10.09,0.07 V 28.63 H 22.58 V 17.9 L 0,17.9 V 0"
       style="fill:#3b4957;fill-opacity:1;fill-rule:nonzero;stroke:none"
       transform="matrix(1.3333333,0,0,-1.3333333,602.74667,539.27987)" />
    <path
       id="path43"
       d="M 0,0 H 33.98 V -11.4 L 14.64,-79.58 H 2.57 l 20.01,68.85 H 0"
       style="fill:#3b4957;fill-opacity:1;fill-rule:nonzero;stroke:none"
       transform="matrix(1.3333333,0,0,-1.3333333,642.98667,501.09333)" />
    <g
       id="g44"
       clip-path="url(#clipPath41)">
      <g
         id="g58"
         transform="translate(20.744483)">
        <path
           d="m 52.264666,0.78478281 c -2.961914,0 -5.273438,-0.48925781 -6.9375,-1.46484375 -1.658203,-0.98437496 -2.894532,-2.43749996 -3.714844,-4.35937496 -0.820313,-1.921875 -1.333008,-4.3183594 -1.535156,-7.1953121 -0.196289,-2.882813 -0.292969,-6.246094 -0.292969,-10.089844 0,-3.796875 0.09668,-7.13086 0.292969,-10.007813 0.202148,-2.882812 0.714843,-5.302734 1.535156,-7.265625 0.820312,-1.959961 2.056641,-3.427734 3.714844,-4.40625 1.664062,-0.984375 3.975586,-1.476562 6.9375,-1.476562 2.912109,0 5.191406,0.480469 6.832031,1.441406 1.640625,0.960938 2.850586,2.402344 3.632812,4.324219 0.779297,1.916015 1.248047,4.324219 1.40625,7.230469 0.164063,2.90039 0.246094,6.287109 0.246094,10.160156 0,3.922851 -0.08203,7.324219 -0.246094,10.207031 -0.158203,2.8769532 -0.626953,5.2734376 -1.40625,7.1953126 -0.782226,1.921875 -1.992187,3.3574218 -3.632812,4.30078121 -1.640625,0.93457031 -3.919922,1.40625 -6.832031,1.40625 z m 0,-4.74609371 c 1.397461,0 2.484375,-0.328125 3.257812,-0.984375 0.779297,-0.6621094 1.362305,-1.734375 1.746094,-3.2109375 0.380859,-1.4824219 0.612305,-3.3867186 0.691406,-5.7070316 0.07617,-2.320312 0.117188,-5.138672 0.117188,-8.460937 0,-3.272461 -0.04102,-6.082031 -0.117188,-8.425781 -0.0791,-2.34375 -0.310547,-4.265625 -0.691406,-5.765625 -0.383789,-1.5 -0.966797,-2.589844 -1.746094,-3.269532 -0.773437,-0.679687 -1.860351,-1.019531 -3.257812,-1.019531 -1.447266,0 -2.578125,0.351563 -3.398438,1.054688 -0.820312,0.703125 -1.441406,1.792968 -1.863281,3.269531 -0.416016,1.476562 -0.685547,3.386719 -0.808594,5.730469 -0.117187,2.34375 -0.175781,5.15332 -0.175781,8.425781 0,3.322265 0.05859,6.140625 0.175781,8.460937 0.123047,2.320313 0.392578,4.2246097 0.808594,5.7070316 0.421875,1.4765625 1.042969,2.5488281 1.863281,3.2109375 0.820313,0.65625 1.951172,0.984375 3.398438,0.984375 z M 73.985369,-3.734375e-4 V -40.019905 h -7.441406 v -4.675781 h 21 v 4.675781 H 79.915056 V -3.734375e-4 Z m 32.159181,0 -5.51953,-23.4023435625 -4.441409,7.746094 V -3.734375e-4 H 90.242205 V -44.695686 h 5.941406 v 19.851563 l 8.999999,-19.851563 h 6.71484 l -7.86328,14.636719 9,30.0585935625 z m 9.89648,0 V -44.695686 h 7.73438 c 2.84179,0 5.16211,0.263672 6.96094,0.785156 1.80468,0.515625 3.21386,1.286133 4.23046,2.308594 1.02247,1.016602 1.72266,2.285156 2.09766,3.808594 0.38086,1.517578 0.57422,3.254883 0.57422,5.214844 0,2.197265 -0.19336,4.177734 -0.57422,5.941406 -0.375,1.757812 -1.05469,3.246094 -2.03906,4.464844 -0.97852,1.21875 -2.32617,2.162109 -4.04297,2.824218 -1.71973,0.65625 -3.92285,0.984375 -6.60938,0.984375 h -2.44921 V -3.734375e-4 Z M 125.09963,-23.039436 c 1.43554,0 2.5957,-0.199219 3.48047,-0.597656 0.88183,-0.398438 1.56152,-0.987305 2.03906,-1.769531 0.47461,-0.779297 0.78515,-1.740235 0.92578,-2.882813 0.14062,-1.139648 0.21094,-2.428711 0.21094,-3.867187 0,-1.242188 -0.0703,-2.34375 -0.21094,-3.304688 -0.14063,-0.960937 -0.43066,-1.769531 -0.86719,-2.425781 -0.43945,-0.66211 -1.08691,-1.154297 -1.94531,-1.476563 -0.86133,-0.319336 -2.0332,-0.480468 -3.51563,-0.480468 h -3.29296 v 16.804687 z M 140.94338,-3.734375e-4 V -44.695686 h 5.63672 v 18.351563 h 4.5 c 2.75683,0 4.96289,0.339843 6.62109,1.019531 1.66406,0.679687 2.92383,1.611328 3.78516,2.789062 0.85839,1.180664 1.42968,2.53125 1.71093,4.054688 0.28125,1.523437 0.42188,3.125976 0.42188,4.804687 0,1.916016 -0.0703,3.7031253 -0.21094,5.3671878 -0.14062,1.6582031 -0.5625,3.1054688 -1.26562,4.3476563 -0.69727,1.2421875 -1.79297,2.2148437 -3.29297,2.9179687 -1.5,0.69726564 -3.62989,1.0429687625 -6.38672,1.0429687625 z M 150.90431,-4.3831859 c 1.67872,0 2.98829,-0.1992188 3.92579,-0.5976563 0.9375,-0.3984375 1.63476,-0.9755859 2.09765,-1.734375 0.45996,-0.7646484 0.72949,-1.7050781 0.8086,-2.8242187 0.085,-1.1162111 0.1289,-2.4169921 0.1289,-3.9023441 0,-1.280273 -0.0703,-2.449218 -0.21094,-3.503906 -0.14062,-1.060547 -0.43359,-1.97168 -0.8789,-2.730469 -0.43946,-0.764648 -1.06055,-1.353515 -1.86328,-1.769531 -0.79688,-0.421875 -1.83399,-0.632812 -3.10547,-0.632812 h -5.22656 v 17.6953121 z m 16.19532,4.3828124625 V -44.695686 h 5.9414 V -3.734375e-4 Z m 16.1455,0 V -40.019905 h -7.4414 v -4.675781 h 21 v 4.675781 h -7.62891 V -3.734375e-4 Z m 16.25684,0 V -44.695686 h 5.63672 v 18.351563 h 4.5 c 2.75684,0 4.96289,0.339843 6.62109,1.019531 1.66407,0.679687 2.92383,1.611328 3.78516,2.789062 0.8584,1.180664 1.42969,2.53125 1.71094,4.054688 0.28125,1.523437 0.42187,3.125976 0.42187,4.804687 0,1.916016 -0.0703,3.7031253 -0.21094,5.3671878 -0.14062,1.6582031 -0.5625,3.1054688 -1.26562,4.3476563 -0.69727,1.2421875 -1.79297,2.2148437 -3.29297,2.9179687 -1.5,0.69726564 -3.62988,1.0429687625 -6.38672,1.0429687625 z M 209.46291,-4.3831859 c 1.67871,0 2.98828,-0.1992188 3.92578,-0.5976563 0.9375,-0.3984375 1.63476,-0.9755859 2.09766,-1.734375 0.45996,-0.7646484 0.72949,-1.7050781 0.80859,-2.8242187 0.085,-1.1162111 0.12891,-2.4169921 0.12891,-3.9023441 0,-1.280273 -0.0703,-2.449218 -0.21094,-3.503906 -0.14063,-1.060547 -0.4336,-1.97168 -0.87891,-2.730469 -0.43945,-0.764648 -1.06055,-1.353515 -1.86328,-1.769531 -0.79687,-0.421875 -1.83398,-0.632812 -3.10547,-0.632812 h -5.22656 v 17.6953121 z m 16.19531,4.3828124625 V -44.695686 h 5.94141 V -3.734375e-4 Z m 32.7627,0 h -5.09766 V -30.902717 L 242.40138,-3.734375e-4 H 236.2842 V -44.695686 h 5.09765 v 30.960938 l 10.85157,-30.960938 h 6.1875 z M 256.31154,-56.332405 c -0.55664,2.399414 -1.58203,4.277344 -3.08203,5.636719 -1.5,1.359375 -3.41016,2.039063 -5.73047,2.039063 -2.32031,0 -4.3125,-0.685547 -5.97656,-2.0625 -1.6582,-1.382813 -2.7041,-3.275391 -3.14063,-5.683594 l 2.92969,-1.019531 c 0.16406,0.767578 0.41309,1.5 0.75,2.203125 0.34277,0.697265 0.77344,1.3125 1.28906,1.851562 0.52149,0.539063 1.13086,0.969727 1.82813,1.289063 0.70312,0.322265 1.47656,0.480468 2.32031,0.480468 1.67871,0 3.05859,-0.588867 4.13672,-1.769531 1.07812,-1.177734 1.77539,-2.569336 2.09766,-4.171875 z M 291.7256,-3.734375e-4 286.20607,-23.402717 l -4.4414,7.746094 V -3.734375e-4 h -5.94141 V -44.695686 h 5.94141 v 19.851563 l 9,-19.851563 h 6.71484 l -7.86328,14.636719 9,30.0585935625 z M 299.70021,-44.695686 h 6.23438 l 5.70703,27.65625 6.29297,-27.65625 h 5.34375 l -8.46094,34.9804688 c -0.36035,1.5175781 -0.76172,2.9267578 -1.20703,4.2304688 -0.43945,1.2978515 -1.00781,2.4257812 -1.71094,3.3867187 -0.69726,0.9609375 -1.56445,1.71972657 -2.60156,2.27343751 -1.04004,0.5625 -2.32031,0.84374999 -3.84375,0.84374999 -0.83789,0 -1.58789,-0.0703125 -2.25,-0.21093749 -0.65625,-0.140625 -1.30664,-0.41015625 -1.94531,-0.8085937475 0.39843,-0.7968750025 0.79687,-1.5849609625 1.19531,-2.3671874625 0.4043,-0.7792969 0.80859,-1.5703125 1.20703,-2.3671875 0.5625,0.4394531 1.16016,0.65625 1.79297,0.65625 0.60058,0 1.23047,-0.2988282 1.88672,-0.9023438 0.66211,-0.6005859 1.29492,-1.640625 1.89844,-3.1171875 z M 326.16115,-3.734375e-4 V -44.695686 h 19.61719 v 4.675781 h -13.98047 v 13.675782 h 4.5 c 2.75683,0 4.96289,0.339843 6.62109,1.019531 1.66407,0.679687 2.92383,1.611328 3.78516,2.789062 0.8584,1.180664 1.42969,2.53125 1.71094,4.054688 0.28125,1.523437 0.42187,3.125976 0.42187,4.804687 0,1.916016 -0.0703,3.7031253 -0.21094,5.3671878 -0.14062,1.6582031 -0.5625,3.1054688 -1.26562,4.3476563 -0.69727,1.2421875 -1.79297,2.2148437 -3.29297,2.9179687 -1.5,0.69726564 -3.62988,1.0429687625 -6.38672,1.0429687625 z M 336.12209,-4.3831859 c 1.67871,0 2.98828,-0.1992188 3.92578,-0.5976563 0.9375,-0.3984375 1.63476,-0.9755859 2.09766,-1.734375 0.45996,-0.7646484 0.72949,-1.7050781 0.80859,-2.8242187 0.085,-1.1162111 0.12891,-2.4169921 0.12891,-3.9023441 0,-1.280273 -0.0703,-2.449218 -0.21094,-3.503906 -0.14063,-1.060547 -0.4336,-1.97168 -0.87891,-2.730469 -0.43945,-0.764648 -1.06055,-1.353515 -1.86328,-1.769531 -0.79687,-0.421875 -1.83398,-0.632812 -3.10547,-0.632812 h -5.22656 v 17.6953121 z m 28.2041,5.16796871 c -2.96191,0 -5.27344,-0.48925781 -6.9375,-1.46484375 -1.6582,-0.98437496 -2.89453,-2.43749996 -3.71484,-4.35937496 -0.82032,-1.921875 -1.33301,-4.3183594 -1.53516,-7.1953121 -0.19629,-2.882813 -0.29297,-6.246094 -0.29297,-10.089844 0,-3.796875 0.0967,-7.13086 0.29297,-10.007813 0.20215,-2.882812 0.71484,-5.302734 1.53516,-7.265625 0.82031,-1.959961 2.05664,-3.427734 3.71484,-4.40625 1.66406,-0.984375 3.97559,-1.476562 6.9375,-1.476562 2.91211,0 5.19141,0.480469 6.83203,1.441406 1.64063,0.960938 2.85059,2.402344 3.63281,4.324219 0.7793,1.916015 1.24805,4.324219 1.40625,7.230469 0.16407,2.90039 0.2461,6.287109 0.2461,10.160156 0,3.922851 -0.082,7.324219 -0.2461,10.207031 -0.1582,2.8769532 -0.62695,5.2734376 -1.40625,7.1953126 -0.78222,1.921875 -1.99218,3.3574218 -3.63281,4.30078121 -1.64062,0.93457031 -3.91992,1.40625 -6.83203,1.40625 z m 0,-4.74609371 c 1.39746,0 2.48437,-0.328125 3.25781,-0.984375 0.7793,-0.6621094 1.36231,-1.734375 1.7461,-3.2109375 0.38085,-1.4824219 0.6123,-3.3867186 0.6914,-5.7070316 0.0762,-2.320312 0.11719,-5.138672 0.11719,-8.460937 0,-3.272461 -0.041,-6.082031 -0.11719,-8.425781 -0.0791,-2.34375 -0.31055,-4.265625 -0.6914,-5.765625 -0.38379,-1.5 -0.9668,-2.589844 -1.7461,-3.269532 -0.77344,-0.679687 -1.86035,-1.019531 -3.25781,-1.019531 -1.44727,0 -2.57813,0.351563 -3.39844,1.054688 -0.82031,0.703125 -1.4414,1.792968 -1.86328,3.269531 -0.41602,1.476562 -0.68555,3.386719 -0.80859,5.730469 -0.11719,2.34375 -0.17578,5.15332 -0.17578,8.425781 0,3.322265 0.0586,6.140625 0.17578,8.460937 0.12304,2.320313 0.39257,4.2246097 0.80859,5.7070316 0.42188,1.4765625 1.04297,2.5488281 1.86328,3.2109375 0.82031,0.65625 1.95117,0.984375 3.39844,0.984375 z m 32.21777,3.9609374625 -5.51953,-23.4023435625 -4.4414,7.746094 V -3.734375e-4 h -5.94141 V -44.695686 h 5.94141 v 19.851563 l 9,-19.851563 h 6.71484 l -7.86328,14.636719 9,30.0585935625 z"
           style="fill:#3fa9a9;fill-opacity:1;fill-rule:nonzero;stroke:none"
           aria-label="V ОТКРЫТЫЙ КУБОК"
           transform="matrix(1.3333333,0,0,1.3333333,363.49347,1008.2935)"
           opacity="1"
           id="path44"
           sodipodi:nodetypes="scscscccssccscccsscccscccssccscccsccccccccccccccccccccccccscccscccscccscccssccsccsccccsccsscccscssccscccsccsccccccccccccccccccsccsscccscssccscccsccscccccccccccccccccssccccccscccccccccccccccccccccccccsccccscccccccccsccsscccscssccscccsccsscscscccssccscccsscccscccssccscccsccccccccccccc" />
        <path
           d="m 380.43106,948.69168 v 59.35952 h -7.90626 v -59.35952 z"
           style="fill:#3fa9a9;fill-opacity:1;fill-rule:nonzero;stroke:none;stroke-width:1.33333"
           id="path1-5"
           sodipodi:nodetypes="ccccc" />
        <path
           d="m 391.48914,948.69173 v 59.35937 h -7.90625 v -59.35937 z"
           style="fill:#3fa9a9;fill-opacity:1;fill-rule:nonzero;stroke:none;stroke-width:1.33333"
           id="path1-5-9"
           sodipodi:nodetypes="ccccc" />
        <path
           d="m 402.54723,948.69177 v 59.35943 h -7.90626 v -59.35943 z"
           style="fill:#3fa9a9;fill-opacity:1;fill-rule:nonzero;stroke:none;stroke-width:1.33333"
           id="path1-5-93"
           sodipodi:nodetypes="ccccc" />
        <path
           d="m 349.02667,1008.2243 -11.92188,-59.5938 h 8.5625 l 8,45.90625 8.15625,-45.90625 h 7.51562 l -12,59.5938 z"
           style="fill:#3fa9a9;fill-opacity:1;fill-rule:nonzero;stroke:none;stroke-width:1.33333"
           id="path1-2" />
      </g>
    </g>
    <g
       id="g45"
       clip-path="url(#clipPath41)">
      <path
         d="M 22.499019,6.15625e-4 H 16.616206 V -18.362666 h -2.460937 c -2.680664,0 -4.8808596,-0.328125 -6.5976565,-0.984375 C 5.8378859,-20.00915 4.4873,-20.952509 3.502925,-22.171259 c -0.9785156,-1.21875 -1.6582031,-2.707032 -2.0390625,-4.464844 -0.375,-1.763672 -0.5625,-3.744141 -0.5625,-5.941406 V -44.694697 H 6.784175 v 12.539063 c 0,1.438476 0.064453,2.727539 0.1992188,3.867187 0.140625,1.142578 0.4482421,2.103516 0.9257812,2.882813 0.4833984,0.782226 1.1660156,1.371093 2.0507813,1.769531 0.8818357,0.398437 2.0419917,0.597656 3.4804687,0.597656 h 3.175781 v -21.65625 h 5.882813 z m 10.207031,0 V -40.018916 h -7.441406 v -4.675781 h 21 v 4.675781 H 38.635738 V 6.15625e-4 Z M 60.845698,0.78577188 c -2.961914,0 -5.273437,-0.48925782 -6.9375,-1.46484375 -1.658203,-0.98437503 -2.894531,-2.43750003 -3.714843,-4.35937503 -0.820313,-1.921875 -1.333008,-4.3183593 -1.535157,-7.1953121 -0.196289,-2.882813 -0.292968,-6.246094 -0.292968,-10.089844 0,-3.796875 0.09668,-7.130859 0.292968,-10.007813 0.202149,-2.882812 0.714844,-5.302734 1.535157,-7.265625 0.820312,-1.959961 2.05664,-3.427734 3.714843,-4.40625 1.664063,-0.984375 3.975586,-1.476562 6.9375,-1.476562 2.91211,0 5.191407,0.480469 6.832032,1.441406 1.640625,0.960938 2.850586,2.402344 3.632812,4.324219 0.779297,1.916016 1.248047,4.324219 1.40625,7.230469 0.164063,2.90039 0.246094,6.287109 0.246094,10.160156 0,3.922851 -0.08203,7.324219 -0.246094,10.207031 -0.158203,2.8769533 -0.626953,5.2734376 -1.40625,7.1953126 -0.782226,1.921875 -1.992187,3.3574219 -3.632812,4.30078128 -1.640625,0.93457031 -3.919922,1.40625 -6.832032,1.40625 z m 0,-4.74609378 c 1.397461,0 2.484375,-0.328125 3.257813,-0.984375 0.779297,-0.6621093 1.362305,-1.734375 1.746094,-3.2109375 0.380859,-1.4824218 0.612304,-3.3867186 0.691406,-5.7070316 0.07617,-2.320312 0.117187,-5.138671 0.117187,-8.460937 0,-3.272461 -0.04102,-6.082031 -0.117187,-8.425781 -0.0791,-2.34375 -0.310547,-4.265625 -0.691406,-5.765625 -0.383789,-1.5 -0.966797,-2.589844 -1.746094,-3.269532 -0.773438,-0.679687 -1.860352,-1.019531 -3.257813,-1.019531 -1.447265,0 -2.578125,0.351563 -3.398437,1.054688 -0.820313,0.703125 -1.441406,1.792968 -1.863281,3.269531 -0.416016,1.476562 -0.685547,3.386719 -0.808594,5.730469 -0.117188,2.34375 -0.175781,5.15332 -0.175781,8.425781 0,3.322266 0.05859,6.140625 0.175781,8.460937 0.123047,2.320313 0.392578,4.2246098 0.808594,5.7070316 0.421875,1.4765625 1.042968,2.5488282 1.863281,3.2109375 0.820312,0.65625 1.951172,0.984375 3.398437,0.984375 z m 21.47168,-9.5976561 c -0.515625,-0.999024 -0.773437,-2.261719 -0.773437,-3.785156 0,-1.435547 0.205078,-2.733399 0.621093,-3.890625 0.421875,-1.163086 0.931641,-2.244141 1.535157,-3.246094 0.600586,-0.999024 1.268554,-1.96875 2.003906,-2.90625 0.741211,-0.943359 1.412109,-1.892578 2.015625,-2.847656 0.600586,-0.960938 1.107422,-1.959961 1.523437,-3 0.421875,-1.045899 0.632813,-2.206055 0.632813,-3.480469 0,-2.279297 -0.269531,-3.919922 -0.808594,-4.921875 -0.539062,-0.999024 -1.6875,-1.5 -3.445312,-1.5 -1.040039,0 -1.860352,0.199219 -2.460938,0.597656 -0.603515,0.398438 -1.075195,1.007813 -1.417969,1.828125 -0.336914,0.820313 -0.574218,1.863281 -0.714843,3.128906 -0.140625,1.259766 -0.251953,2.727539 -0.328125,4.40625 l -5.285157,-0.726562 c 0.123047,-2.4375 0.322266,-4.535156 0.597657,-6.292969 0.28125,-1.763672 0.779297,-3.216797 1.5,-4.359375 0.726562,-1.139648 1.757812,-1.980469 3.09375,-2.519531 1.341797,-0.539063 3.131836,-0.808594 5.367187,-0.808594 1.959961,0 3.580078,0.210938 4.863281,0.632813 1.280274,0.421875 2.279297,1.075195 3,1.957031 0.717774,0.875976 1.21875,2.024414 1.5,3.445312 0.28125,1.423829 0.421875,3.111329 0.421875,5.0625 0,1.681641 -0.231445,3.161133 -0.691406,4.441407 -0.46289,1.283203 -1.03125,2.443359 -1.710937,3.480468 -0.679688,1.040039 -1.423828,2.012696 -2.226563,2.917969 -0.796875,0.899414 -1.535156,1.810547 -2.214844,2.730469 -0.679687,0.914062 -1.250976,1.883789 -1.710937,2.90625 -0.454102,1.016601 -0.679688,2.185547 -0.679688,3.503906 0,1.166016 0.178711,2.24707 0.539063,3.246094 z M 81.836909,6.15625e-4 V -7.8040719 h 5.636719 V 6.15625e-4 Z m 30.064451,0 V -44.694697 h 18.42188 v 4.675781 H 117.90136 V 6.15625e-4 Z M 150.72265,-39.960322 h -7.86328 v 17.636719 c 0,4.001953 -0.0908,7.461914 -0.26953,10.382812 -0.18164,2.9238285 -0.69141,5.3437504 -1.53516,7.2656254 h 9.66797 z m 5.94141,47.8828126 V 6.15625e-4 H 136.14453 V 7.9224906 h -4.6875 V -4.6751656 h 2.40234 c 0.67969,-0.4453125 1.20703,-1.125 1.58203,-2.0390625 0.38086,-0.9199219 0.67383,-2.100586 0.87891,-3.5390629 0.20215,-1.444336 0.33105,-3.155273 0.38672,-5.132812 0.0615,-1.983399 0.0937,-4.294922 0.0937,-6.9375 v -22.371094 h 19.86328 v 40.0195314 h 4.67578 V 7.9224906 Z M 164.34277,6.15625e-4 V -44.694697 h 17.15625 v 4.675781 h -11.21485 v 14.097657 h 9.42188 l -0.42188,4.746093 h -9 v 16.6171879 h 11.51954 V 6.15625e-4 Z M 190.67773,-13.557978 c -0.51563,-0.999024 -0.77344,-2.261719 -0.77344,-3.785156 0,-1.435547 0.20508,-2.733399 0.6211,-3.890625 0.42187,-1.163086 0.93164,-2.244141 1.53515,-3.246094 0.60059,-0.999024 1.26856,-1.96875 2.00391,-2.90625 0.74121,-0.943359 1.41211,-1.892578 2.01562,-2.847656 0.60059,-0.960938 1.10743,-1.959961 1.52344,-3 0.42188,-1.045899 0.63281,-2.206055 0.63281,-3.480469 0,-2.279297 -0.26953,-3.919922 -0.80859,-4.921875 -0.53906,-0.999024 -1.6875,-1.5 -3.44531,-1.5 -1.04004,0 -1.86035,0.199219 -2.46094,0.597656 -0.60352,0.398438 -1.0752,1.007813 -1.41797,1.828125 -0.33691,0.820313 -0.57422,1.863281 -0.71484,3.128906 -0.14063,1.259766 -0.25196,2.727539 -0.32813,4.40625 l -5.28515,-0.726562 c 0.12304,-2.4375 0.32226,-4.535156 0.59765,-6.292969 0.28125,-1.763672 0.7793,-3.216797 1.5,-4.359375 0.72656,-1.139648 1.75781,-1.980469 3.09375,-2.519531 1.3418,-0.539063 3.13184,-0.808594 5.36719,-0.808594 1.95996,0 3.58008,0.210938 4.86328,0.632813 1.28027,0.421875 2.2793,1.075195 3,1.957031 0.71777,0.875976 1.21875,2.024414 1.5,3.445312 0.28125,1.423829 0.42188,3.111329 0.42188,5.0625 0,1.681641 -0.23145,3.161133 -0.69141,4.441407 -0.46289,1.283203 -1.03125,2.443359 -1.71094,3.480468 -0.67969,1.040039 -1.42383,2.012696 -2.22656,2.917969 -0.79688,0.899414 -1.53516,1.810547 -2.21484,2.730469 -0.67969,0.914062 -1.25098,1.883789 -1.71094,2.90625 -0.4541,1.016601 -0.67969,2.185547 -0.67969,3.503906 0,1.166016 0.17871,2.24707 0.53906,3.246094 z M 190.19726,6.15625e-4 V -7.8040719 h 5.63672 V 6.15625e-4 Z m 45.9668,0 -5.51953,-23.402343625 -4.44141,7.746094 V 6.15625e-4 h -5.94141 V -44.694697 h 5.94141 v 19.851563 l 9,-19.851563 h 6.71484 l -7.86328,14.636719 9,30.058593625 z m 21.78222,0.785156255 c -2.96191,0 -5.27343,-0.48925782 -6.9375,-1.46484375 -1.6582,-0.98437503 -2.89453,-2.43750003 -3.71484,-4.35937503 -0.82031,-1.921875 -1.33301,-4.3183593 -1.53516,-7.1953121 -0.19628,-2.882813 -0.29296,-6.246094 -0.29296,-10.089844 0,-3.796875 0.0967,-7.130859 0.29296,-10.007813 0.20215,-2.882812 0.71485,-5.302734 1.53516,-7.265625 0.82031,-1.959961 2.05664,-3.427734 3.71484,-4.40625 1.66407,-0.984375 3.97559,-1.476562 6.9375,-1.476562 2.91211,0 5.19141,0.480469 6.83204,1.441406 1.64062,0.960938 2.85058,2.402344 3.63281,4.324219 0.77929,1.916016 1.24804,4.324219 1.40625,7.230469 0.16406,2.90039 0.24609,6.287109 0.24609,10.160156 0,3.922851 -0.082,7.324219 -0.24609,10.207031 -0.15821,2.8769533 -0.62696,5.2734376 -1.40625,7.1953126 -0.78223,1.921875 -1.99219,3.3574219 -3.63281,4.30078128 -1.64063,0.93457031 -3.91993,1.40625 -6.83204,1.40625 z m 0,-4.74609378 c 1.39747,0 2.48438,-0.328125 3.25782,-0.984375 0.77929,-0.6621093 1.3623,-1.734375 1.74609,-3.2109375 0.38086,-1.4824218 0.61231,-3.3867186 0.69141,-5.7070316 0.0762,-2.320312 0.11718,-5.138671 0.11718,-8.460937 0,-3.272461 -0.041,-6.082031 -0.11718,-8.425781 -0.0791,-2.34375 -0.31055,-4.265625 -0.69141,-5.765625 -0.38379,-1.5 -0.9668,-2.589844 -1.74609,-3.269532 -0.77344,-0.679687 -1.86035,-1.019531 -3.25782,-1.019531 -1.44726,0 -2.57812,0.351563 -3.39843,1.054688 -0.82032,0.703125 -1.44141,1.792968 -1.86328,3.269531 -0.41602,1.476562 -0.68555,3.386719 -0.8086,5.730469 -0.11719,2.34375 -0.17578,5.15332 -0.17578,8.425781 0,3.322266 0.0586,6.140625 0.17578,8.460937 0.12305,2.320313 0.39258,4.2246098 0.8086,5.7070316 0.42187,1.4765625 1.04296,2.5488282 1.86328,3.2109375 0.82031,0.65625 1.95117,0.984375 3.39843,0.984375 z M 274.26171,6.15625e-4 V -44.694697 h 18.42188 v 4.675781 H 280.26171 V 6.15625e-4 Z M 313.083,-39.960322 h -7.86328 v 17.636719 c 0,4.001953 -0.0908,7.461914 -0.26953,10.382812 -0.18164,2.9238285 -0.69141,5.3437504 -1.53516,7.2656254 h 9.66797 z m 5.94141,47.8828126 V 6.15625e-4 H 298.50488 V 7.9224906 h -4.6875 V -4.6751656 h 2.40234 c 0.67969,-0.4453125 1.20703,-1.125 1.58203,-2.0390625 0.38086,-0.9199219 0.67383,-2.100586 0.87891,-3.5390629 0.20215,-1.444336 0.33105,-3.155273 0.38672,-5.132812 0.0615,-1.983399 0.0937,-4.294922 0.0937,-6.9375 v -22.371094 h 19.86328 v 40.0195314 h 4.67578 V 7.9224906 Z M 342.47656,6.15625e-4 340.68359,-10.733759 h -8.34375 L 330.47656,6.15625e-4 h -5.63672 L 333.72265,-44.694697 h 6.29297 l 9,44.695312625 z m -5.94141,-35.039062625 -3.77344,19.558594 h 7.38282 z m 20.58399,21.480469 c -0.51563,-0.999024 -0.77344,-2.261719 -0.77344,-3.785156 0,-1.435547 0.20508,-2.733399 0.62109,-3.890625 0.42188,-1.163086 0.93164,-2.244141 1.53516,-3.246094 0.60058,-0.999024 1.26855,-1.96875 2.0039,-2.90625 0.74122,-0.943359 1.41211,-1.892578 2.01563,-2.847656 0.60059,-0.960938 1.10742,-1.959961 1.52344,-3 0.42187,-1.045899 0.63281,-2.206055 0.63281,-3.480469 0,-2.279297 -0.26953,-3.919922 -0.80859,-4.921875 -0.53907,-0.999024 -1.6875,-1.5 -3.44532,-1.5 -1.04004,0 -1.86035,0.199219 -2.46093,0.597656 -0.60352,0.398438 -1.0752,1.007813 -1.41797,1.828125 -0.33692,0.820313 -0.57422,1.863281 -0.71485,3.128906 -0.14062,1.259766 -0.25195,2.727539 -0.32812,4.40625 l -5.28516,-0.726562 c 0.12305,-2.4375 0.32227,-4.535156 0.59766,-6.292969 0.28125,-1.763672 0.7793,-3.216797 1.5,-4.359375 0.72656,-1.139648 1.75781,-1.980469 3.09375,-2.519531 1.3418,-0.539063 3.13183,-0.808594 5.36719,-0.808594 1.95996,0 3.58007,0.210938 4.86328,0.632813 1.28027,0.421875 2.27929,1.075195 3,1.957031 0.71777,0.875976 1.21875,2.024414 1.5,3.445312 0.28125,1.423829 0.42187,3.111329 0.42187,5.0625 0,1.681641 -0.23144,3.161133 -0.6914,4.441407 -0.46289,1.283203 -1.03125,2.443359 -1.71094,3.480468 -0.67969,1.040039 -1.42383,2.012696 -2.22656,2.917969 -0.79688,0.899414 -1.53516,1.810547 -2.21485,2.730469 -0.67969,0.914062 -1.25097,1.883789 -1.71094,2.90625 -0.4541,1.016601 -0.67968,2.185547 -0.67968,3.503906 0,1.166016 0.17871,2.24707 0.53906,3.246094 z M 356.63867,6.15625e-4 V -7.8040719 h 5.63672 V 6.15625e-4 Z m 0,0"
         style="fill:#3b4957;fill-opacity:1;fill-rule:nonzero;stroke:none"
         aria-label="ЧТО? ГДЕ? КОГДА?"
         transform="matrix(1.3333333,0,0,1.3333333,395.26693,1106.0539)"
         opacity="1"
         id="path45" />
    </g>
    <path
       id="path48"
       d="m 629.388,706.736 -29.893,-92.527 -0.759,-20.251 -3.291,-23.794 -4.303,-10.632 -8.353,-18.48 -11.139,-14.992 -19.238,-20.7 -24.301,-16.707 -22.53,-7.594 -25.581,-2.209 0.12,-105.291 45.609,22.781 -6.492,30.828 19.685,-21.988 42.51,24.79 -39.579,57.928 53.401,-44.605 61.956,51.725 -45.622,33.622 58.426,-16.659 41.883,98.634 -68.06,1.675 74.552,19.266 29.737,149.73 z"
       transform="matrix(1.3333333,0,0,-1.3333333,0,1309.52)"
       style="fill:url(#linearGradient48);stroke:none" />
    <path
       id="path52"
       d="m 241.731,631.556 74.552,-19.266 -68.06,-1.675 41.883,-98.634 58.426,16.659 -45.622,-33.622 61.956,-51.725 53.401,44.605 -39.579,-57.928 42.51,-24.79 19.685,21.988 L 434.391,396.34 480,373.559 V 478.85 l -25.461,2.209 -22.53,7.594 -24.301,16.707 -19.238,20.7 -11.139,14.992 -8.353,18.48 -4.303,10.632 -3.291,23.794 -0.759,20.251 -29.893,92.527 -118.738,74.55 z"
       transform="matrix(1.3333333,0,0,-1.3333333,0,1309.52)"
       style="fill:url(#linearGradient52);stroke:none" />
    <path
       id="path53"
       d="m 0,0 c -13.86,-17.99 -27.71,-35.96 -41.73,-54.16 12.15,-6.88 24.12,-13.66 36.15,-20.47 0.74,0.92 1.29,1.6 1.82,2.29 5.38,6.95 10.76,13.91 16.16,20.86 0.59,0.75 1.19,1.53 1.93,2.11 1.65,1.3 3.5,1.54 5.37,0.49 1.86,-1.05 2.66,-2.71 2.46,-4.82 -0.08,-0.79 -0.29,-1.57 -0.5,-2.34 -2.5,-9.17 -5.02,-18.34 -7.53,-27.51 -0.21,-0.75 -0.36,-1.52 -0.57,-2.39 13.4,-7.69 26.68,-15.31 39.96,-22.94 13.46,7.73 26.73,15.35 39.99,22.97 -0.17,0.67 -0.26,1.06 -0.36,1.44 -2.54,9.24 -5.08,18.49 -7.61,27.73 -0.25,0.92 -0.55,1.85 -0.68,2.79 -0.31,2.24 0.76,4.24 2.66,5.18 1.85,0.91 3.93,0.61 5.54,-0.91 0.69,-0.65 1.28,-1.43 1.86,-2.19 5.39,-6.95 10.76,-13.91 16.15,-20.86 0.48,-0.61 1,-1.19 1.58,-1.89 12.08,6.84 24.01,13.6 36.1,20.45 C 134.72,-35.96 120.84,-17.95 107.01,0 71.18,-17.64 35.66,-17.59 0,0 Z m -207.38,286.13 c 0.1,-0.98 0.12,-1.53 0.23,-2.06 7.8,-39.09 15.6,-78.18 23.41,-117.27 1,-5.01 2.1,-10.01 2.98,-15.04 0.31,-1.75 1.06,-2.51 2.78,-2.93 14.27,-3.51 28.52,-7.12 42.77,-10.69 10.23,-2.57 20.45,-5.13 30.68,-7.7 0.62,-0.16 1.25,-0.31 1.84,-0.53 2.37,-0.9 3.63,-2.86 3.38,-5.19 -0.24,-2.23 -2.03,-3.99 -4.46,-4.34 -0.63,-0.09 -1.28,-0.09 -1.92,-0.1 -16.15,-0.29 -32.3,-0.58 -48.44,-0.87 -5.04,-0.09 -10.07,-0.18 -15.11,-0.28 -0.53,-0.01 -1.06,-0.14 -1.93,-0.26 12.86,-29.11 25.63,-58.02 38.52,-87.18 0.91,0.25 1.73,0.47 2.54,0.71 17.12,4.9 34.24,9.8 51.37,14.7 0.77,0.22 1.53,0.47 2.32,0.61 2.17,0.39 4.28,-0.61 5.28,-2.46 0.96,-1.78 0.74,-4 -0.71,-5.57 -0.75,-0.81 -1.67,-1.48 -2.58,-2.12 -13.11,-9.15 -26.24,-18.27 -39.36,-27.41 -0.78,-0.54 -1.55,-1.11 -2.58,-1.84 18.07,-15.25 36.01,-30.39 54.07,-45.64 17.29,14.56 34.45,29.01 51.74,43.57 -0.6,0.45 -0.96,0.74 -1.34,1 -23.44,16.1 -39.54,37.88 -49.55,64.32 -5.15,13.61 -8.23,27.71 -9.24,42.23 -0.31,4.46 -0.34,8.94 -0.48,13.41 -0.02,0.56 -0.02,1.12 0.04,1.68 0.27,2.66 2.18,4.49 4.7,4.53 2.51,0.04 4.56,-1.72 4.89,-4.34 0.15,-1.26 0.08,-2.55 0.09,-3.83 0.16,-18.09 3.33,-35.61 10,-52.44 8.96,-22.61 22.82,-41.52 42.67,-55.79 15.57,-11.2 32.94,-17.95 52.03,-19.83 25.41,-2.49 48.7,3.83 69.84,17.95 19.26,12.86 33.15,30.33 42.72,51.3 6.79,14.9 10.8,30.55 12.08,46.88 0.36,4.54 0.37,9.1 0.57,13.65 0.05,1.03 0.09,2.1 0.38,3.07 0.63,2.17 2.48,3.44 4.68,3.39 2.09,-0.05 3.79,-1.31 4.42,-3.4 0.23,-0.75 0.35,-1.57 0.35,-2.35 C 178.24,93.9 169.23,62.98 148.84,35.73 140.63,24.76 130.82,15.41 119.52,7.65 119,7.29 118.48,6.92 117.67,6.35 c 5.66,-5.08 11.47,-9.75 17.16,-14.58 5.67,-4.81 11.37,-9.59 17.06,-14.38 5.74,-4.84 11.49,-9.67 17.47,-14.7 17.99,15.18 35.92,30.31 54.06,45.62 -0.87,0.64 -1.55,1.15 -2.25,1.63 -13.12,9.13 -26.24,18.26 -39.36,27.4 -0.85,0.59 -1.73,1.17 -2.48,1.88 -1.83,1.71 -2.21,4.1 -1.08,6.11 1.07,1.91 3.21,2.91 5.54,2.29 5.02,-1.33 10,-2.79 14.99,-4.22 12.9,-3.7 25.79,-7.41 38.69,-11.1 0.68,-0.19 1.37,-0.33 2.26,-0.55 12.83,29.05 25.64,58.02 38.52,87.17 -0.87,0.09 -1.41,0.2 -1.96,0.21 -18.79,0.33 -37.57,0.65 -56.36,0.98 -2.72,0.05 -5.44,0.09 -8.15,0.23 -0.93,0.05 -1.92,0.27 -2.76,0.66 -1.73,0.81 -2.69,2.28 -2.72,4.2 -0.03,1.91 0.87,3.4 2.57,4.29 0.84,0.44 1.78,0.72 2.7,0.95 24.24,6.1 48.48,12.21 72.75,18.22 2.23,0.55 3.18,1.46 3.64,3.81 8.37,42.4 16.86,84.78 25.33,127.16 0.4,2.02 0.8,4.04 1.32,6.63 -1.1,-0.66 -1.75,-1.04 -2.38,-1.45 L 208.94,218.45 c -1.01,-0.65 -2,-1.34 -3.06,-1.88 -2.51,-1.28 -5.17,-0.61 -6.54,1.56 -1.38,2.19 -0.84,4.81 1.4,6.58 0.62,0.49 1.31,0.91 1.99,1.34 37.92,24.37 75.85,48.74 113.78,73.1 0.94,0.6 1.88,1.23 2.9,1.67 3.26,1.39 6.58,-0.56 6.73,-4.07 0.08,-1.89 -0.21,-3.83 -0.58,-5.69 -7.64,-38.39 -15.31,-76.78 -22.98,-115.16 -1.92,-9.64 -3.96,-19.25 -5.72,-28.92 -0.71,-3.89 -2.65,-5.97 -6.51,-6.9 -12.81,-3.08 -25.57,-6.36 -38.35,-9.57 -0.82,-0.21 -1.64,-0.42 -2.41,-1.04 2.84,-0.09 5.67,-0.22 8.51,-0.28 8.79,-0.17 17.59,-0.32 26.38,-0.48 0.72,-0.01 1.45,-0.03 2.15,-0.16 3.01,-0.58 4.68,-3.42 3.72,-6.34 -0.27,-0.83 -0.68,-1.62 -1.04,-2.42 -13.72,-31.06 -27.45,-62.12 -41.17,-93.19 -0.29,-0.66 -0.53,-1.33 -0.81,-2 -1.3,-3.08 -3.46,-4.2 -6.73,-3.34 -3.4,0.9 -6.76,1.91 -10.14,2.88 -6.14,1.76 -12.28,3.52 -18.42,5.28 -0.45,0.13 -0.9,0.22 -1.61,-0.06 0.58,-0.42 1.14,-0.85 1.73,-1.26 6.89,-4.8 13.76,-9.61 20.68,-14.37 2.3,-1.58 3.23,-3.64 2.74,-6.38 -0.31,-1.7 -1.43,-2.8 -2.67,-3.85 -6.18,-5.2 -12.34,-10.41 -18.52,-15.62 -13.08,-11.03 -26.15,-22.07 -39.23,-33.1 -0.12,-0.1 -0.25,-0.2 -0.37,-0.31 -3.27,-3 -6.46,-3.95 -10.93,0 -7.43,6.56 -15.13,12.82 -22.71,19.2 -0.59,0.49 -1.2,0.95 -2.14,1.17 0.35,-0.55 0.67,-1.14 1.07,-1.65 5.75,-7.48 11.51,-14.95 17.26,-22.43 0.54,-0.7 1.08,-1.39 1.61,-2.09 2.56,-3.45 2.06,-6.57 -1.44,-9.04 -0.52,-0.37 -1.09,-0.67 -1.64,-0.99 -13.21,-7.48 -26.42,-14.97 -39.64,-22.44 -0.83,-0.47 -1.69,-0.92 -2.57,-1.28 -2.6,-1.05 -4.63,-0.6 -6.45,1.54 -1.45,1.71 -2.76,3.52 -4.15,5.28 -0.49,0.62 -1,1.21 -1.88,1.65 0.81,-2.87 1.49,-5.78 2.45,-8.6 1.32,-3.87 0.78,-5.67 -2.8,-7.74 -9.28,-5.35 -18.57,-10.67 -27.86,-16 -5.06,-2.9 -10.16,-5.73 -15.17,-8.73 -2.93,-1.75 -5.62,-1.68 -8.55,0.02 -14.25,8.25 -28.55,16.4 -42.81,24.63 -1.08,0.62 -2.15,1.45 -2.9,2.42 -1.11,1.43 -0.92,3.08 -0.34,4.79 1.02,3.01 1.84,6.09 2.39,9.35 -0.38,-0.42 -0.79,-0.81 -1.13,-1.25 -1.48,-1.88 -2.9,-3.82 -4.43,-5.67 -1.93,-2.34 -4.02,-2.8 -6.84,-1.59 -0.81,0.34 -1.58,0.76 -2.35,1.19 -13.21,7.48 -26.43,14.95 -39.62,22.47 -1.16,0.66 -2.3,1.49 -3.19,2.47 -1.94,2.16 -2,4.38 -0.4,6.78 0.4,0.6 0.85,1.16 1.29,1.73 6,7.79 12,15.58 18,23.37 0.58,0.75 1.12,1.51 1.49,2.51 -0.48,-0.34 -0.99,-0.64 -1.43,-1.02 -7.89,-6.64 -15.78,-13.28 -23.67,-19.93 -0.61,-0.51 -1.22,-1.03 -1.85,-1.53 -2.06,-1.63 -4.28,-1.65 -6.52,-0.5 -0.91,0.47 -1.72,1.16 -2.51,1.82 -19.13,16.13 -38.26,32.27 -57.38,48.41 -0.67,0.57 -1.36,1.12 -1.97,1.75 -2.5,2.59 -2.27,6.4 0.51,8.65 0.43,0.35 0.91,0.66 1.37,0.98 6.63,4.61 13.26,9.22 19.88,13.84 0.63,0.44 1.24,0.93 1.69,1.73 -0.83,-0.2 -1.68,-0.36 -2.5,-0.6 -8.6,-2.47 -17.19,-4.94 -25.79,-7.41 -0.84,-0.24 -1.69,-0.52 -2.55,-0.65 -2.73,-0.41 -4.66,0.66 -5.77,3.2 -2.79,6.37 -5.55,12.75 -8.36,19.11 -11.43,25.87 -22.88,51.74 -34.32,77.61 -1.89,4.28 0.12,7.57 4.83,7.69 8.71,0.22 17.43,0.32 26.14,0.5 3.11,0.06 6.22,0.17 9.43,0.59 -0.59,0.2 -1.17,0.44 -1.77,0.59 -12.94,3.24 -25.88,6.48 -38.81,9.72 -0.54,0.14 -1.08,0.3 -1.62,0.43 -2.81,0.67 -4.35,2.47 -4.89,5.27 -0.96,4.94 -1.95,9.87 -2.94,14.81 -5.71,28.59 -11.42,57.19 -17.14,85.78 -3.07,15.35 -6.16,30.7 -9.17,46.06 -0.32,1.62 -0.46,3.36 -0.21,4.97 0.47,3.05 3.46,4.63 6.36,3.55 0.81,-0.3 1.58,-0.77 2.32,-1.24 38.4,-24.66 76.8,-49.33 115.19,-74 0.74,-0.47 1.48,-0.98 2.09,-1.59 1.69,-1.69 1.93,-4.28 0.64,-6.15 -1.25,-1.81 -3.59,-2.56 -5.73,-1.67 -1.1,0.45 -2.12,1.12 -3.12,1.76 -34.44,22.11 -68.86,44.23 -103.3,66.35 -0.8,0.51 -1.61,0.99 -2.85,1.75 z"
       style="fill:#3b4957;fill-opacity:1;fill-rule:nonzero;stroke:none"
       transform="matrix(1.3333333,0,0,-1.3333333,568.81333,661.42667)" />
    <path
       id="path54"
       d="m 0,0 c 0.04,-0.54 0,-0.71 0.07,-0.83 0.35,-0.63 0.7,-1.26 1.08,-1.87 6.44,-10.24 15.54,-17.24 26.56,-21.93 7.62,-3.24 15.66,-4.97 23.7,-6.72 11.47,-2.5 22.91,-5.07 34.12,-8.63 31.92,-10.15 55.52,-30.14 71.27,-59.6 5.78,-10.82 10.38,-22.12 14.26,-33.73 0.24,-0.72 0.51,-1.44 0.96,-2.71 0.48,1.4 0.79,2.28 1.08,3.17 4.39,13.23 9.74,26.03 16.81,38.07 10.3,17.55 23.71,32.07 41.27,42.58 10,5.99 20.75,10.24 31.86,13.64 11.09,3.39 22.46,5.6 33.76,8.14 7.73,1.73 15.37,3.7 22.55,7.17 9.72,4.7 17.72,11.36 23.5,20.55 0.49,0.78 0.9,1.6 1.35,2.41 -0.78,-0.07 -1.3,-0.39 -1.83,-0.68 -2.8,-1.54 -5.52,-3.23 -8.41,-4.58 -10.36,-4.84 -21.33,-7.08 -32.73,-7.36 -14.78,-0.35 -29.57,-0.67 -44.35,-0.98 -13.27,-0.28 -26.53,-0.52 -39.8,-0.78 -14.46,-0.29 -28.93,-0.7 -43.39,-0.83 -8.47,-0.08 -16.94,0.26 -25.41,0.43 -10.31,0.2 -20.62,0.38 -30.93,0.6 -21.5,0.45 -42.99,0.92 -64.49,1.4 -4.55,0.1 -9.11,0.16 -13.66,0.4 C 25.71,-11.95 13.12,-8.24 1.65,-0.98 1.18,-0.69 0.7,-0.41 0,0.01 Z m 172.07,-156.15 c -3.31,0 -4.49,0.69 -5.51,3.84 -1.45,4.48 -2.62,9.05 -4.04,13.54 -3.58,11.38 -7.99,22.41 -13.48,33.01 -14.59,28.15 -36.75,47.24 -67.15,56.69 -10.62,3.3 -21.43,5.75 -32.28,8.11 -8.19,1.79 -16.39,3.57 -24.21,6.72 -13.49,5.44 -24.64,13.79 -32.44,26.23 -4.64,7.41 -7.58,15.47 -8.67,24.17 -0.09,0.71 -0.17,1.44 -0.09,2.15 0.25,1.97 1.15,3.52 3.17,4.08 2.06,0.57 3.97,0.26 5.49,-1.4 0.16,-0.18 0.31,-0.37 0.44,-0.57 4.9,-7.91 12.2,-13 20.38,-16.91 8.84,-4.23 18.25,-6.34 28.03,-6.57 24.3,-0.55 48.59,-1.01 72.89,-1.5 14.95,-0.31 29.9,-0.48 44.83,-0.97 16.63,-0.56 33.24,0.24 49.86,0.44 12.07,0.15 24.14,0.47 36.2,0.74 19.18,0.42 38.37,0.71 57.54,1.35 13.29,0.44 25.65,4.16 36.59,12 4.25,3.05 8.08,6.53 10.81,11.08 0.88,1.47 2.14,2.32 3.86,2.52 3.09,0.36 5.53,-1.51 5.39,-4.61 -0.13,-2.85 -0.56,-5.74 -1.27,-8.5 -5.09,-19.54 -17.34,-33.08 -35.3,-41.76 -7.75,-3.75 -16.02,-5.87 -24.38,-7.74 -11.3,-2.52 -22.67,-4.73 -33.75,-8.17 -10.1,-3.14 -19.87,-7.03 -28.97,-12.5 -15.34,-9.22 -27.23,-21.84 -36.49,-37.04 -8.25,-13.53 -14.08,-28.12 -18.75,-43.2 -1.18,-3.81 -2.16,-7.68 -3.4,-11.48 -0.99,-3.04 -2.17,-3.75 -5.31,-3.76 z"
       style="fill:#3b4957;fill-opacity:1;fill-rule:nonzero;stroke:none"
       transform="matrix(1.3333333,0,0,-1.3333333,410.84,251.25333)" />
    <path
       id="path55"
       d="m 0,0 c -1.04,-1.07 -1.84,-1.94 -2.69,-2.77 -6.56,-6.35 -14.14,-10.96 -23.1,-12.99 -17.7,-4.01 -34.25,4.42 -41.6,21.14 -4.57,10.4 -5,21.2 -2.63,32.16 0.62,2.88 1.65,5.67 2.51,8.49 0.16,0.51 0.46,0.97 0.79,1.63 C -44.51,31.79 -22.42,16.01 -0.01,0 Z"
       style="fill:#3b4957;fill-opacity:1;fill-rule:nonzero;stroke:none"
       transform="matrix(1.3333333,0,0,-1.3333333,584.96,405.02653)" />
    <path
       id="path56"
       d="M 0,0 C 1.51,-3.05 2.32,-6.04 3.04,-9.05 5.7,-20.24 5.42,-31.28 0.79,-41.92 -4.25,-53.48 -12.78,-61.1 -25.32,-63.73 c -8.01,-1.68 -15.73,-0.41 -23.18,2.76 -6.56,2.79 -12.19,6.94 -17.11,12.08 -0.22,0.23 -0.43,0.47 -0.62,0.73 -0.08,0.12 -0.08,0.29 -0.18,0.7 22.04,15.75 44.16,31.55 66.42,47.46 z"
       style="fill:#3b4957;fill-opacity:1;fill-rule:nonzero;stroke:none"
       transform="matrix(1.3333333,0,0,-1.3333333,784.34667,341.43987)" />
    <path
       id="path57"
       d="m 0,0 c -23.86,0.85 -41.44,11.93 -52.61,32.97 -6.3,11.86 -8.46,24.69 -7.46,38.07 0.76,10.17 3.47,19.79 7.97,28.93 0.46,0.93 0.96,1.86 1.6,2.66 1.45,1.79 3.89,2.29 5.84,1.32 1.92,-0.96 2.96,-2.98 2.52,-5.21 -0.18,-0.92 -0.58,-1.82 -1.01,-2.67 -5.48,-10.88 -7.99,-22.41 -7.22,-34.55 1.03,-16.38 7.05,-30.57 20.06,-40.94 15.65,-12.47 33.03,-13.82 51.22,-6.22 9.65,4.03 17.38,10.65 23.76,18.9 0.63,0.82 1.24,1.68 2,2.38 1.84,1.71 4.23,1.84 6.14,0.44 1.87,-1.37 2.47,-3.78 1.44,-6.01 C 53.98,29.49 53.64,28.94 53.26,28.44 42.9,14.65 29.62,5.26 12.65,1.43 8.5,0.49 4.31,-0.01 -0.01,0 Z"
       style="fill:#3b4957;fill-opacity:1;fill-rule:nonzero;stroke:none"
       transform="matrix(1.3333333,0,0,-1.3333333,539.18667,461.50667)" />
    <path
       id="path58"
       d="m 0,0 c -0.1,-11.62 -4.52,-26.22 -14.62,-38.8 -10.36,-12.91 -23.87,-20.34 -40.37,-21.88 -12.87,-1.2 -24.93,1.77 -36.15,8.13 -8.83,4.99 -16.18,11.66 -22.21,19.8 -0.56,0.76 -1.09,1.6 -1.4,2.49 -0.74,2.1 0.04,4.29 1.82,5.49 1.82,1.23 4.05,1.16 5.77,-0.35 0.89,-0.78 1.59,-1.78 2.33,-2.72 7.67,-9.84 17.23,-17.08 29.18,-20.88 23.26,-7.39 47.07,2.37 58.74,24.06 5.84,10.86 7.96,22.48 6.89,34.75 -0.77,8.88 -3.19,17.25 -7.19,25.19 -0.32,0.64 -0.62,1.3 -0.83,1.99 -0.66,2.2 0.23,4.46 2.15,5.58 1.9,1.1 4.4,0.77 5.9,-0.94 0.73,-0.82 1.28,-1.83 1.77,-2.83 C -2.8,28.16 0.03,16.63 -0.01,0.02 Z"
       style="fill:#3b4957;fill-opacity:1;fill-rule:nonzero;stroke:none"
       transform="matrix(1.3333333,0,0,-1.3333333,821.48,380.21333)" />
  </g>
</svg>
